<svg width="931" height="719" viewBox="0 0 931 719" fill="none" xmlns="http://www.w3.org/2000/svg">
<g clip-path="url(#clip0_198_52)">
<path d="M110.618 262.701L207.415 59.9076L447.068 0L543.866 133.663L691.347 115.217L857.273 179.75C857.273 179.75 880.316 230.462 884.914 253.505C889.512 276.549 931 387.168 931 387.168L760.476 502.386C760.476 502.386 792.742 557.696 811.187 589.962C829.632 622.228 668.304 654.495 645.26 663.717C622.217 672.94 497.779 682.163 465.514 686.761C433.248 691.359 327.255 719.027 327.255 719.027C327.255 719.027 285.767 553.098 290.392 539.277C295.017 525.457 133.688 576.141 133.688 576.141L152.133 419.435L0 322.636L110.618 262.728V262.701Z" fill="#FF0000"/>
</g>
<defs>
<clipPath id="clip0_198_52">
<rect width="931" height="719" fill="white"/>
</clipPath>
</defs>
</svg>
