<svg width="890" height="260" viewBox="0 0 890 260" fill="none" xmlns="http://www.w3.org/2000/svg">
<mask id="path-1-outside-1_198_77" maskUnits="userSpaceOnUse" x="122" y="37" width="651" height="130" fill="black">
<rect fill="white" x="122" y="37" width="651" height="130"/>
<path d="M125.42 41.8047H156.299L189.668 123.318H190.996L224.365 41.8047H255.244V162H231.006V83.3086H230.01L198.633 161.502H182.031L150.654 82.9766H149.658V162H125.42V41.8047ZM300.4 41.8047V162H275.498V41.8047H300.4ZM385.898 76.1699C384.902 66.707 377.266 61.0625 365.146 61.0625C352.529 61.0625 345.557 66.873 345.391 74.8418C345.225 83.4746 354.355 87.459 364.648 89.7832L375.439 92.4395C396.025 97.0879 411.465 107.547 411.465 127.635C411.465 149.715 394.199 163.66 364.98 163.66C335.928 163.66 317.334 150.213 316.67 124.48H340.908C341.738 136.6 351.367 142.742 364.648 142.742C377.764 142.742 386.23 136.6 386.23 127.635C386.23 119.5 378.76 115.682 365.645 112.361L352.529 109.207C332.275 104.227 319.824 94.0996 319.824 76.502C319.824 54.5879 339.082 40.1445 365.312 40.1445C391.875 40.1445 409.473 54.9199 409.805 76.1699H385.898ZM492.979 76.1699C491.982 66.707 484.346 61.0625 472.227 61.0625C459.609 61.0625 452.637 66.873 452.471 74.8418C452.305 83.4746 461.436 87.459 471.729 89.7832L482.52 92.4395C503.105 97.0879 518.545 107.547 518.545 127.635C518.545 149.715 501.279 163.66 472.061 163.66C443.008 163.66 424.414 150.213 423.75 124.48H447.988C448.818 136.6 458.447 142.742 471.729 142.742C484.844 142.742 493.311 136.6 493.311 127.635C493.311 119.5 485.84 115.682 472.725 112.361L459.609 109.207C439.355 104.227 426.904 94.0996 426.904 76.502C426.904 54.5879 446.162 40.1445 472.393 40.1445C498.955 40.1445 516.553 54.9199 516.885 76.1699H492.979ZM534.814 162V41.8047H614.004V62.3906H559.717V91.6094H608.857V112.195H559.717V162H534.814ZM655.342 41.8047V162H630.439V41.8047H655.342ZM670.947 62.3906V41.8047H769.395V62.3906H732.539V162H707.803V62.3906H670.947Z"/>
</mask>
<path d="M125.42 41.8047H156.299L189.668 123.318H190.996L224.365 41.8047H255.244V162H231.006V83.3086H230.01L198.633 161.502H182.031L150.654 82.9766H149.658V162H125.42V41.8047ZM300.4 41.8047V162H275.498V41.8047H300.4ZM385.898 76.1699C384.902 66.707 377.266 61.0625 365.146 61.0625C352.529 61.0625 345.557 66.873 345.391 74.8418C345.225 83.4746 354.355 87.459 364.648 89.7832L375.439 92.4395C396.025 97.0879 411.465 107.547 411.465 127.635C411.465 149.715 394.199 163.66 364.98 163.66C335.928 163.66 317.334 150.213 316.67 124.48H340.908C341.738 136.6 351.367 142.742 364.648 142.742C377.764 142.742 386.23 136.6 386.23 127.635C386.23 119.5 378.76 115.682 365.645 112.361L352.529 109.207C332.275 104.227 319.824 94.0996 319.824 76.502C319.824 54.5879 339.082 40.1445 365.312 40.1445C391.875 40.1445 409.473 54.9199 409.805 76.1699H385.898ZM492.979 76.1699C491.982 66.707 484.346 61.0625 472.227 61.0625C459.609 61.0625 452.637 66.873 452.471 74.8418C452.305 83.4746 461.436 87.459 471.729 89.7832L482.52 92.4395C503.105 97.0879 518.545 107.547 518.545 127.635C518.545 149.715 501.279 163.66 472.061 163.66C443.008 163.66 424.414 150.213 423.75 124.48H447.988C448.818 136.6 458.447 142.742 471.729 142.742C484.844 142.742 493.311 136.6 493.311 127.635C493.311 119.5 485.84 115.682 472.725 112.361L459.609 109.207C439.355 104.227 426.904 94.0996 426.904 76.502C426.904 54.5879 446.162 40.1445 472.393 40.1445C498.955 40.1445 516.553 54.9199 516.885 76.1699H492.979ZM534.814 162V41.8047H614.004V62.3906H559.717V91.6094H608.857V112.195H559.717V162H534.814ZM655.342 41.8047V162H630.439V41.8047H655.342ZM670.947 62.3906V41.8047H769.395V62.3906H732.539V162H707.803V62.3906H670.947Z" fill="#FF0000"/>
<path d="M125.42 41.8047V38.8047H122.42V41.8047H125.42ZM156.299 41.8047L159.075 40.6681L158.312 38.8047H156.299V41.8047ZM189.668 123.318L186.892 124.455L187.654 126.318H189.668V123.318ZM190.996 123.318V126.318H193.01L193.772 124.455L190.996 123.318ZM224.365 41.8047V38.8047H222.352L221.589 40.6681L224.365 41.8047ZM255.244 41.8047H258.244V38.8047H255.244V41.8047ZM255.244 162V165H258.244V162H255.244ZM231.006 162H228.006V165H231.006V162ZM231.006 83.3086H234.006V80.3086H231.006V83.3086ZM230.01 83.3086V80.3086H227.981L227.226 82.1914L230.01 83.3086ZM198.633 161.502V164.502H200.662L201.417 162.619L198.633 161.502ZM182.031 161.502L179.245 162.615L179.999 164.502H182.031V161.502ZM150.654 82.9766L153.44 81.8634L152.686 79.9766H150.654V82.9766ZM149.658 82.9766V79.9766H146.658V82.9766H149.658ZM149.658 162V165H152.658V162H149.658ZM125.42 162H122.42V165H125.42V162ZM125.42 44.8047H156.299V38.8047H125.42V44.8047ZM153.522 42.9412L186.892 124.455L192.444 122.182L159.075 40.6681L153.522 42.9412ZM189.668 126.318H190.996V120.318H189.668V126.318ZM193.772 124.455L227.142 42.9412L221.589 40.6681L188.22 122.182L193.772 124.455ZM224.365 44.8047H255.244V38.8047H224.365V44.8047ZM252.244 41.8047V162H258.244V41.8047H252.244ZM255.244 159H231.006V165H255.244V159ZM234.006 162V83.3086H228.006V162H234.006ZM231.006 80.3086H230.01V86.3086H231.006V80.3086ZM227.226 82.1914L195.849 160.385L201.417 162.619L232.794 84.4258L227.226 82.1914ZM198.633 158.502H182.031V164.502H198.633V158.502ZM184.817 160.389L153.44 81.8634L147.868 84.0897L179.245 162.615L184.817 160.389ZM150.654 79.9766H149.658V85.9766H150.654V79.9766ZM146.658 82.9766V162H152.658V82.9766H146.658ZM149.658 159H125.42V165H149.658V159ZM128.42 162V41.8047H122.42V162H128.42ZM300.4 41.8047H303.4V38.8047H300.4V41.8047ZM300.4 162V165H303.4V162H300.4ZM275.498 162H272.498V165H275.498V162ZM275.498 41.8047V38.8047H272.498V41.8047H275.498ZM297.4 41.8047V162H303.4V41.8047H297.4ZM300.4 159H275.498V165H300.4V159ZM278.498 162V41.8047H272.498V162H278.498ZM275.498 44.8047H300.4V38.8047H275.498V44.8047ZM385.898 76.1699L382.915 76.484L383.198 79.1699H385.898V76.1699ZM345.391 74.8418L342.391 74.7793L342.391 74.7841L345.391 74.8418ZM364.648 89.7832L365.365 86.8702L365.337 86.8632L365.309 86.8569L364.648 89.7832ZM375.439 92.4395L374.722 95.3525L374.75 95.3594L374.779 95.3658L375.439 92.4395ZM316.67 124.48V121.48H313.592L313.671 124.558L316.67 124.48ZM340.908 124.48L343.901 124.275L343.71 121.48H340.908V124.48ZM365.645 112.361L366.381 109.453L366.363 109.449L366.346 109.445L365.645 112.361ZM352.529 109.207L351.813 112.12L351.82 112.122L351.828 112.124L352.529 109.207ZM409.805 76.1699V79.1699H412.852L412.804 76.1231L409.805 76.1699ZM388.882 75.8559C388.3 70.3268 385.732 65.7655 381.464 62.6457C377.261 59.5731 371.643 58.0625 365.146 58.0625V64.0625C370.769 64.0625 375.029 65.3741 377.923 67.4895C380.752 69.5577 382.501 72.5502 382.915 76.484L388.882 75.8559ZM365.146 58.0625C358.415 58.0625 352.831 59.6087 348.826 62.5442C344.745 65.5349 342.494 69.8443 342.391 74.7793L348.39 74.9043C348.453 71.8706 349.771 69.2903 352.373 67.3836C355.05 65.4215 359.261 64.0625 365.146 64.0625V58.0625ZM342.391 74.7841C342.283 80.4116 345.304 84.4214 349.433 87.1744C353.45 89.8521 358.743 91.5253 363.988 92.7095L365.309 86.8569C360.261 85.7169 355.842 84.2358 352.762 82.1821C349.794 80.2036 348.332 77.9048 348.39 74.8995L342.391 74.7841ZM363.931 92.6962L374.722 95.3525L376.157 89.5264L365.365 86.8702L363.931 92.6962ZM374.779 95.3658C384.809 97.6307 393.271 101.249 399.181 106.492C404.99 111.645 408.465 118.472 408.465 127.635H414.465C414.465 116.709 410.22 108.263 403.163 102.003C396.206 95.832 386.656 91.8966 376.1 89.5131L374.779 95.3658ZM408.465 127.635C408.465 137.813 404.526 145.925 397.329 151.566C390.047 157.274 379.153 160.66 364.98 160.66V166.66C380.027 166.66 392.375 163.073 401.03 156.289C409.771 149.437 414.465 139.536 414.465 127.635H408.465ZM364.98 160.66C350.872 160.66 339.698 157.39 332.034 151.362C324.461 145.405 319.981 136.495 319.669 124.403L313.671 124.558C314.023 138.198 319.172 148.878 328.325 156.078C337.387 163.206 350.037 166.66 364.98 166.66V160.66ZM316.67 127.48H340.908V121.48H316.67V127.48ZM337.915 124.685C338.388 131.583 341.417 136.978 346.338 140.578C351.173 144.113 357.585 145.742 364.648 145.742V139.742C358.431 139.742 353.388 138.3 349.88 135.734C346.459 133.233 344.259 129.497 343.901 124.275L337.915 124.685ZM364.648 145.742C371.635 145.742 377.691 144.111 382.09 141C386.564 137.835 389.23 133.181 389.23 127.635H383.23C383.23 131.053 381.663 133.953 378.625 136.101C375.513 138.302 370.777 139.742 364.648 139.742V145.742ZM389.23 127.635C389.23 122.396 386.713 118.549 382.543 115.712C378.569 113.008 372.977 111.123 366.381 109.453L364.908 115.27C371.428 116.92 376.128 118.604 379.168 120.673C382.013 122.609 383.23 124.738 383.23 127.635H389.23ZM366.346 109.445L353.231 106.29L351.828 112.124L364.943 115.278L366.346 109.445ZM353.246 106.294C343.39 103.87 335.769 100.269 330.646 95.4093C325.615 90.6371 322.824 84.5001 322.824 76.502H316.824C316.824 86.1014 320.259 93.8268 326.517 99.7625C332.683 105.611 341.415 109.563 351.813 112.12L353.246 106.294ZM322.824 76.502C322.824 66.5121 327.178 58.276 334.584 52.4657C342.044 46.6125 352.722 43.1445 365.312 43.1445V37.1445C351.673 37.1445 339.607 40.8982 330.88 47.7453C322.099 54.6351 316.824 64.5777 316.824 76.502H322.824ZM365.312 43.1445C378.055 43.1445 388.378 46.687 395.495 52.5103C402.571 58.2995 406.653 66.4726 406.805 76.2168L412.804 76.1231C412.625 64.6172 407.742 54.7776 399.295 47.8666C390.89 40.9898 379.133 37.1445 365.312 37.1445V43.1445ZM409.805 73.1699H385.898V79.1699H409.805V73.1699ZM492.979 76.1699L489.995 76.484L490.278 79.1699H492.979V76.1699ZM452.471 74.8418L449.471 74.7793L449.471 74.7841L452.471 74.8418ZM471.729 89.7832L472.446 86.8702L472.417 86.8632L472.389 86.8569L471.729 89.7832ZM482.52 92.4395L481.802 95.3525L481.831 95.3594L481.859 95.3658L482.52 92.4395ZM423.75 124.48V121.48H420.672L420.751 124.558L423.75 124.48ZM447.988 124.48L450.981 124.275L450.79 121.48H447.988V124.48ZM472.725 112.361L473.461 109.453L473.444 109.449L473.426 109.445L472.725 112.361ZM459.609 109.207L458.893 112.12L458.9 112.122L458.908 112.124L459.609 109.207ZM516.885 76.1699V79.1699H519.932L519.884 76.1231L516.885 76.1699ZM495.962 75.8559C495.38 70.3268 492.812 65.7655 488.544 62.6457C484.341 59.5731 478.723 58.0625 472.227 58.0625V64.0625C477.85 64.0625 482.109 65.3741 485.003 67.4895C487.833 69.5577 489.581 72.5502 489.995 76.484L495.962 75.8559ZM472.227 58.0625C465.495 58.0625 459.911 59.6087 455.906 62.5442C451.825 65.5349 449.574 69.8443 449.471 74.7793L455.47 74.9043C455.533 71.8706 456.851 69.2903 459.453 67.3836C462.13 65.4215 466.341 64.0625 472.227 64.0625V58.0625ZM449.471 74.7841C449.363 80.4116 452.384 84.4214 456.513 87.1744C460.53 89.8521 465.823 91.5253 471.068 92.7095L472.389 86.8569C467.341 85.7169 462.922 84.2358 459.842 82.1821C456.874 80.2036 455.412 77.9048 455.47 74.8995L449.471 74.7841ZM471.011 92.6962L481.802 95.3525L483.237 89.5264L472.446 86.8702L471.011 92.6962ZM481.859 95.3658C491.889 97.6307 500.351 101.249 506.261 106.492C512.07 111.645 515.545 118.472 515.545 127.635H521.545C521.545 116.709 517.3 108.263 510.243 102.003C503.286 95.832 493.736 91.8966 483.18 89.5131L481.859 95.3658ZM515.545 127.635C515.545 137.813 511.606 145.925 504.409 151.566C497.127 157.274 486.233 160.66 472.061 160.66V166.66C487.107 166.66 499.455 163.073 508.111 156.289C516.851 149.437 521.545 139.536 521.545 127.635H515.545ZM472.061 160.66C457.952 160.66 446.778 157.39 439.114 151.362C431.541 145.405 427.061 136.495 426.749 124.403L420.751 124.558C421.103 138.198 426.252 148.878 435.405 156.078C444.467 163.206 457.117 166.66 472.061 166.66V160.66ZM423.75 127.48H447.988V121.48H423.75V127.48ZM444.995 124.685C445.468 131.583 448.497 136.978 453.418 140.578C458.253 144.113 464.665 145.742 471.729 145.742V139.742C465.511 139.742 460.468 138.3 456.96 135.734C453.539 133.233 451.339 129.497 450.981 124.275L444.995 124.685ZM471.729 145.742C478.715 145.742 484.771 144.111 489.17 141C493.645 137.835 496.311 133.181 496.311 127.635H490.311C490.311 131.053 488.743 133.953 485.706 136.101C482.593 138.302 477.857 139.742 471.729 139.742V145.742ZM496.311 127.635C496.311 122.396 493.793 118.549 489.624 115.712C485.649 113.008 480.057 111.123 473.461 109.453L471.988 115.27C478.508 116.92 483.208 118.604 486.248 120.673C489.093 122.609 490.311 124.738 490.311 127.635H496.311ZM473.426 109.445L460.311 106.29L458.908 112.124L472.023 115.278L473.426 109.445ZM460.326 106.294C450.47 103.87 442.85 100.269 437.726 95.4093C432.695 90.6371 429.904 84.5001 429.904 76.502H423.904C423.904 86.1014 427.339 93.8268 433.597 99.7625C439.763 105.611 448.495 109.563 458.893 112.12L460.326 106.294ZM429.904 76.502C429.904 66.5121 434.259 58.276 441.664 52.4657C449.124 46.6125 459.802 43.1445 472.393 43.1445V37.1445C458.753 37.1445 446.687 40.8982 437.96 47.7453C429.179 54.6351 423.904 64.5777 423.904 76.502H429.904ZM472.393 43.1445C485.135 43.1445 495.458 46.687 502.575 52.5103C509.651 58.2995 513.733 66.4726 513.885 76.2168L519.884 76.1231C519.705 64.6172 514.822 54.7776 506.375 47.8666C497.97 40.9898 486.213 37.1445 472.393 37.1445V43.1445ZM516.885 73.1699H492.979V79.1699H516.885V73.1699ZM534.814 162H531.814V165H534.814V162ZM534.814 41.8047V38.8047H531.814V41.8047H534.814ZM614.004 41.8047H617.004V38.8047H614.004V41.8047ZM614.004 62.3906V65.3906H617.004V62.3906H614.004ZM559.717 62.3906V59.3906H556.717V62.3906H559.717ZM559.717 91.6094H556.717V94.6094H559.717V91.6094ZM608.857 91.6094H611.857V88.6094H608.857V91.6094ZM608.857 112.195V115.195H611.857V112.195H608.857ZM559.717 112.195V109.195H556.717V112.195H559.717ZM559.717 162V165H562.717V162H559.717ZM537.814 162V41.8047H531.814V162H537.814ZM534.814 44.8047H614.004V38.8047H534.814V44.8047ZM611.004 41.8047V62.3906H617.004V41.8047H611.004ZM614.004 59.3906H559.717V65.3906H614.004V59.3906ZM556.717 62.3906V91.6094H562.717V62.3906H556.717ZM559.717 94.6094H608.857V88.6094H559.717V94.6094ZM605.857 91.6094V112.195H611.857V91.6094H605.857ZM608.857 109.195H559.717V115.195H608.857V109.195ZM556.717 112.195V162H562.717V112.195H556.717ZM559.717 159H534.814V165H559.717V159ZM655.342 41.8047H658.342V38.8047H655.342V41.8047ZM655.342 162V165H658.342V162H655.342ZM630.439 162H627.439V165H630.439V162ZM630.439 41.8047V38.8047H627.439V41.8047H630.439ZM652.342 41.8047V162H658.342V41.8047H652.342ZM655.342 159H630.439V165H655.342V159ZM633.439 162V41.8047H627.439V162H633.439ZM630.439 44.8047H655.342V38.8047H630.439V44.8047ZM670.947 62.3906H667.947V65.3906H670.947V62.3906ZM670.947 41.8047V38.8047H667.947V41.8047H670.947ZM769.395 41.8047H772.395V38.8047H769.395V41.8047ZM769.395 62.3906V65.3906H772.395V62.3906H769.395ZM732.539 62.3906V59.3906H729.539V62.3906H732.539ZM732.539 162V165H735.539V162H732.539ZM707.803 162H704.803V165H707.803V162ZM707.803 62.3906H710.803V59.3906H707.803V62.3906ZM673.947 62.3906V41.8047H667.947V62.3906H673.947ZM670.947 44.8047H769.395V38.8047H670.947V44.8047ZM766.395 41.8047V62.3906H772.395V41.8047H766.395ZM769.395 59.3906H732.539V65.3906H769.395V59.3906ZM729.539 62.3906V162H735.539V62.3906H729.539ZM732.539 159H707.803V165H732.539V159ZM710.803 162V62.3906H704.803V162H710.803ZM707.803 59.3906H670.947V65.3906H707.803V59.3906Z" fill="black" mask="url(#path-1-outside-1_198_77)"/>
<mask id="path-3-outside-2_198_77" maskUnits="userSpaceOnUse" x="122" y="212" width="143" height="40" fill="black">
<rect fill="white" x="122" y="212" width="143" height="40"/>
<path d="M152.438 215.062V249H146.344L131.438 227.438H131.156V249H124.125V215.062H130.312L145.125 236.625H145.453V215.062H152.438ZM180.844 226.875C180.281 223.125 177.375 220.828 173.438 220.828C168.141 220.828 164.672 224.906 164.672 232.031C164.672 239.344 168.188 243.234 173.391 243.234C177.281 243.234 180.141 241.078 180.844 237.422L187.969 237.469C187.172 243.75 181.922 249.469 173.297 249.469C164.203 249.469 157.5 243.094 157.5 232.031C157.5 220.969 164.344 214.594 173.297 214.594C181.125 214.594 187.031 219.094 187.969 226.875H180.844ZM191.578 220.875V215.062H219.375V220.875H208.969V249H201.984V220.875H191.578ZM255.797 215.062H262.875V237.094C262.875 244.547 257.25 249.469 248.812 249.469C240.375 249.469 234.797 244.547 234.797 237.094V215.062H241.828V236.531C241.828 240.422 244.594 243.281 248.812 243.281C253.078 243.281 255.797 240.422 255.797 236.531V215.062Z"/>
</mask>
<path d="M152.438 215.062V249H146.344L131.438 227.438H131.156V249H124.125V215.062H130.312L145.125 236.625H145.453V215.062H152.438ZM180.844 226.875C180.281 223.125 177.375 220.828 173.438 220.828C168.141 220.828 164.672 224.906 164.672 232.031C164.672 239.344 168.188 243.234 173.391 243.234C177.281 243.234 180.141 241.078 180.844 237.422L187.969 237.469C187.172 243.75 181.922 249.469 173.297 249.469C164.203 249.469 157.5 243.094 157.5 232.031C157.5 220.969 164.344 214.594 173.297 214.594C181.125 214.594 187.031 219.094 187.969 226.875H180.844ZM191.578 220.875V215.062H219.375V220.875H208.969V249H201.984V220.875H191.578ZM255.797 215.062H262.875V237.094C262.875 244.547 257.25 249.469 248.812 249.469C240.375 249.469 234.797 244.547 234.797 237.094V215.062H241.828V236.531C241.828 240.422 244.594 243.281 248.812 243.281C253.078 243.281 255.797 240.422 255.797 236.531V215.062Z" fill="#FF0000"/>
<path d="M152.438 215.062H154.438V213.062H152.438V215.062ZM152.438 249V251H154.438V249H152.438ZM146.344 249L144.699 250.137L145.295 251H146.344V249ZM131.438 227.438L133.083 226.3L132.486 225.438H131.438V227.438ZM131.156 227.438V225.438H129.156V227.438H131.156ZM131.156 249V251H133.156V249H131.156ZM124.125 249H122.125V251H124.125V249ZM124.125 215.062V213.062H122.125V215.062H124.125ZM130.312 215.062L131.961 213.93L131.365 213.062H130.312V215.062ZM145.125 236.625L143.476 237.757L144.072 238.625H145.125V236.625ZM145.453 236.625V238.625H147.453V236.625H145.453ZM145.453 215.062V213.062H143.453V215.062H145.453ZM150.438 215.062V249H154.438V215.062H150.438ZM152.438 247H146.344V251H152.438V247ZM147.989 247.863L133.083 226.3L129.792 228.575L144.699 250.137L147.989 247.863ZM131.438 225.438H131.156V229.438H131.438V225.438ZM129.156 227.438V249H133.156V227.438H129.156ZM131.156 247H124.125V251H131.156V247ZM126.125 249V215.062H122.125V249H126.125ZM124.125 217.062H130.312V213.062H124.125V217.062ZM128.664 216.195L143.476 237.757L146.774 235.493L131.961 213.93L128.664 216.195ZM145.125 238.625H145.453V234.625H145.125V238.625ZM147.453 236.625V215.062H143.453V236.625H147.453ZM145.453 217.062H152.438V213.062H145.453V217.062ZM180.844 226.875L178.866 227.172L179.121 228.875H180.844V226.875ZM180.844 237.422L180.857 235.422L179.194 235.411L178.88 237.044L180.844 237.422ZM187.969 237.469L189.953 237.72L190.237 235.484L187.982 235.469L187.969 237.469ZM187.969 226.875V228.875H190.224L189.954 226.636L187.969 226.875ZM182.822 226.578C182.471 224.243 181.369 222.27 179.664 220.89C177.97 219.52 175.797 218.828 173.438 218.828V222.828C175.016 222.828 176.264 223.285 177.148 224C178.022 224.707 178.654 225.757 178.866 227.172L182.822 226.578ZM173.438 218.828C170.229 218.828 167.444 220.088 165.507 222.508C163.61 224.877 162.672 228.169 162.672 232.031H166.672C166.672 228.769 167.468 226.459 168.63 225.008C169.751 223.607 171.349 222.828 173.438 222.828V218.828ZM162.672 232.031C162.672 235.983 163.62 239.282 165.526 241.634C167.473 244.036 170.249 245.234 173.391 245.234V241.234C171.329 241.234 169.745 240.487 168.634 239.116C167.482 237.694 166.672 235.392 166.672 232.031H162.672ZM173.391 245.234C175.706 245.234 177.843 244.59 179.535 243.282C181.239 241.965 182.371 240.069 182.808 237.8L178.88 237.044C178.613 238.431 177.964 239.441 177.09 240.117C176.204 240.801 174.966 241.234 173.391 241.234V245.234ZM180.831 239.422L187.956 239.469L187.982 235.469L180.857 235.422L180.831 239.422ZM185.985 237.217C185.312 242.515 180.898 247.469 173.297 247.469V251.469C182.946 251.469 189.031 244.985 189.953 237.72L185.985 237.217ZM173.297 247.469C169.232 247.469 165.832 246.054 163.442 243.525C161.046 240.989 159.5 237.156 159.5 232.031H155.5C155.5 237.969 157.305 242.855 160.535 246.272C163.769 249.696 168.268 251.469 173.297 251.469V247.469ZM159.5 232.031C159.5 226.918 161.075 223.083 163.49 220.542C165.904 218.004 169.308 216.594 173.297 216.594V212.594C168.332 212.594 163.839 214.371 160.592 217.786C157.347 221.198 155.5 226.082 155.5 232.031H159.5ZM173.297 216.594C176.831 216.594 179.795 217.607 181.953 219.366C184.094 221.112 185.571 223.698 185.983 227.114L189.954 226.636C189.429 222.271 187.484 218.716 184.481 216.266C181.494 213.831 177.591 212.594 173.297 212.594V216.594ZM187.969 224.875H180.844V228.875H187.969V224.875ZM191.578 220.875H189.578V222.875H191.578V220.875ZM191.578 215.062V213.062H189.578V215.062H191.578ZM219.375 215.062H221.375V213.062H219.375V215.062ZM219.375 220.875V222.875H221.375V220.875H219.375ZM208.969 220.875V218.875H206.969V220.875H208.969ZM208.969 249V251H210.969V249H208.969ZM201.984 249H199.984V251H201.984V249ZM201.984 220.875H203.984V218.875H201.984V220.875ZM193.578 220.875V215.062H189.578V220.875H193.578ZM191.578 217.062H219.375V213.062H191.578V217.062ZM217.375 215.062V220.875H221.375V215.062H217.375ZM219.375 218.875H208.969V222.875H219.375V218.875ZM206.969 220.875V249H210.969V220.875H206.969ZM208.969 247H201.984V251H208.969V247ZM203.984 249V220.875H199.984V249H203.984ZM201.984 218.875H191.578V222.875H201.984V218.875ZM255.797 215.062V213.062H253.797V215.062H255.797ZM262.875 215.062H264.875V213.062H262.875V215.062ZM234.797 215.062V213.062H232.797V215.062H234.797ZM241.828 215.062H243.828V213.062H241.828V215.062ZM255.797 217.062H262.875V213.062H255.797V217.062ZM260.875 215.062V237.094H264.875V215.062H260.875ZM260.875 237.094C260.875 240.284 259.688 242.817 257.688 244.574C255.664 246.352 252.65 247.469 248.812 247.469V251.469C253.412 251.469 257.43 250.125 260.328 247.579C263.25 245.012 264.875 241.356 264.875 237.094H260.875ZM248.812 247.469C244.975 247.469 241.975 246.352 239.964 244.577C237.976 242.822 236.797 240.29 236.797 237.094H232.797C232.797 241.351 234.406 245.006 237.317 247.576C240.204 250.124 244.213 251.469 248.812 251.469V247.469ZM236.797 237.094V215.062H232.797V237.094H236.797ZM234.797 217.062H241.828V213.062H234.797V217.062ZM239.828 215.062V236.531H243.828V215.062H239.828ZM239.828 236.531C239.828 238.963 240.7 241.179 242.334 242.79C243.969 244.401 246.24 245.281 248.812 245.281V241.281C247.167 241.281 245.945 240.732 245.142 239.941C244.339 239.149 243.828 237.99 243.828 236.531H239.828ZM248.812 245.281C251.404 245.281 253.678 244.404 255.312 242.786C256.943 241.171 257.797 238.953 257.797 236.531H253.797C253.797 238 253.292 239.157 252.497 239.944C251.704 240.729 250.486 241.281 248.812 241.281V245.281ZM257.797 236.531V215.062H253.797V236.531H257.797Z" fill="black" mask="url(#path-3-outside-2_198_77)"/>
</svg>
