<svg width="1281" height="122" viewBox="0 0 1281 122" fill="none" xmlns="http://www.w3.org/2000/svg">
<g clip-path="url(#clip0_191_10)">
<path d="M1280.75 0H0V121.98H1280.75V0Z" fill="white"/>
<g clip-path="url(#clip1_191_10)">
<path d="M35.076 79.7765C34.98 79.7765 34.916 79.7245 34.884 79.6205L34.74 79.1405C34.732 79.0845 34.736 79.0485 34.752 79.0325C34.768 79.0085 34.804 79.0005 34.86 79.0085C35.34 79.0245 35.86 79.0405 36.42 79.0565C36.98 79.0645 37.548 79.0685 38.124 79.0685C38.708 79.0685 39.272 79.0645 39.816 79.0565C40.368 79.0405 40.868 79.0205 41.316 78.9965L40.86 79.0805L41.328 78.8645C41.424 78.8165 41.504 78.8365 41.568 78.9245C41.624 79.0045 41.688 79.1045 41.76 79.2245C41.84 79.3445 41.908 79.4565 41.964 79.5605C42.012 79.6405 42.024 79.6925 42 79.7165C41.976 79.7405 41.884 79.7525 41.724 79.7525C41.188 79.7445 40.62 79.7405 40.02 79.7405C39.42 79.7325 38.82 79.7325 38.22 79.7405C37.628 79.7405 37.06 79.7445 36.516 79.7525C35.98 79.7525 35.5 79.7605 35.076 79.7765ZM35.292 84.0605C35.188 84.0685 35.136 84.0245 35.136 83.9285V79.4525H35.952V83.7845C35.952 83.8885 35.904 83.9565 35.808 83.9885C35.704 84.0125 35.608 84.0325 35.52 84.0485C35.44 84.0565 35.364 84.0605 35.292 84.0605ZM35.64 83.1365C35.824 83.1445 36.108 83.1485 36.492 83.1485C36.884 83.1405 37.324 83.1325 37.812 83.1245C38.308 83.1165 38.804 83.1045 39.3 83.0885C39.796 83.0725 40.252 83.0485 40.668 83.0165C41.092 82.9845 41.424 82.9445 41.664 82.8965L40.992 83.2925L41.652 82.7885C41.732 82.7325 41.808 82.7365 41.88 82.8005C41.968 82.8885 42.044 82.9885 42.108 83.1005C42.18 83.2045 42.248 83.3125 42.312 83.4245C42.344 83.5045 42.348 83.5565 42.324 83.5805C42.3 83.6045 42.208 83.6245 42.048 83.6405C41.688 83.6805 41.268 83.7125 40.788 83.7365C40.308 83.7525 39.804 83.7685 39.276 83.7845C38.756 83.7925 38.252 83.8005 37.764 83.8085C37.284 83.8085 36.856 83.8045 36.48 83.7965C36.112 83.7885 35.844 83.7805 35.676 83.7725L35.64 83.1365ZM33.732 87.2525C33.628 87.2525 33.56 87.2085 33.528 87.1205L33.396 86.6405C33.38 86.5765 33.376 86.5365 33.384 86.5205C33.4 86.4965 33.436 86.4885 33.492 86.4965C33.884 86.5045 34.34 86.5165 34.86 86.5325C35.388 86.5405 35.948 86.5485 36.54 86.5565C37.14 86.5565 37.748 86.5565 38.364 86.5565C38.988 86.5565 39.596 86.5565 40.188 86.5565C40.78 86.5485 41.328 86.5405 41.832 86.5325C42.344 86.5245 42.788 86.5125 43.164 86.4965L42.684 86.6645L43.188 86.2925C43.236 86.2525 43.276 86.2365 43.308 86.2445C43.34 86.2525 43.372 86.2805 43.404 86.3285C43.468 86.4325 43.528 86.5485 43.584 86.6765C43.648 86.7965 43.708 86.9205 43.764 87.0485C43.788 87.1045 43.796 87.1485 43.788 87.1805C43.788 87.2045 43.764 87.2205 43.716 87.2285C43.676 87.2365 43.604 87.2405 43.5 87.2405C42.86 87.2325 42.176 87.2285 41.448 87.2285C40.728 87.2205 39.996 87.2165 39.252 87.2165C38.516 87.2165 37.8 87.2205 37.104 87.2285C36.416 87.2285 35.78 87.2325 35.196 87.2405C34.62 87.2405 34.132 87.2445 33.732 87.2525ZM38.16 86.9285L38.136 84.8285L38.112 84.3125C38.112 84.2085 38.164 84.1565 38.268 84.1565H38.952C39.016 84.1565 39.052 84.1685 39.06 84.1925C39.076 84.2085 39.076 84.2445 39.06 84.3005C39.052 84.3325 39.04 84.3645 39.024 84.3965C39.008 84.4205 38.992 84.4445 38.976 84.4685L38.952 86.9285H38.16ZM47.8523 83.4725C47.3643 83.4725 46.9203 83.3805 46.5203 83.1965C46.1203 83.0045 45.8043 82.7365 45.5723 82.3925C45.3403 82.0405 45.2243 81.6205 45.2243 81.1325C45.2243 80.6445 45.3403 80.2285 45.5723 79.8845C45.8043 79.5325 46.1203 79.2645 46.5203 79.0805C46.9203 78.8885 47.3643 78.7925 47.8523 78.7925C48.3243 78.7925 48.7563 78.8885 49.1483 79.0805C49.5483 79.2645 49.8683 79.5325 50.1083 79.8845C50.3563 80.2285 50.4803 80.6445 50.4803 81.1325C50.4803 81.6205 50.3563 82.0405 50.1083 82.3925C49.8683 82.7365 49.5483 83.0045 49.1483 83.1965C48.7563 83.3805 48.3243 83.4725 47.8523 83.4725ZM47.8523 82.8485C48.1803 82.8485 48.4803 82.7845 48.7523 82.6565C49.0323 82.5205 49.2523 82.3245 49.4123 82.0685C49.5803 81.8125 49.6643 81.5005 49.6643 81.1325C49.6643 80.7725 49.5803 80.4645 49.4123 80.2085C49.2523 79.9525 49.0323 79.7565 48.7523 79.6205C48.4803 79.4845 48.1803 79.4165 47.8523 79.4165C47.3323 79.4165 46.8963 79.5685 46.5443 79.8725C46.2003 80.1685 46.0283 80.5885 46.0283 81.1325C46.0283 81.6845 46.2003 82.1085 46.5443 82.4045C46.8963 82.7005 47.3323 82.8485 47.8523 82.8485ZM52.9163 84.1325C52.8123 84.1485 52.7603 84.1045 52.7603 84.0005V78.3845L52.7483 78.0965C52.7483 77.9925 52.8003 77.9405 52.9043 77.9405H53.6363C53.7403 77.9405 53.7763 77.9885 53.7443 78.0845C53.7203 78.1405 53.6923 78.1965 53.6603 78.2525C53.6283 78.3085 53.5963 78.3645 53.5643 78.4205V83.8565C53.5643 83.9445 53.5443 84.0045 53.5043 84.0365C53.4643 84.0685 53.3643 84.0925 53.2043 84.1085L52.9163 84.1325ZM53.1923 80.3765C52.6803 80.3685 52.2443 80.3765 51.8843 80.4005C51.5243 80.4165 51.2123 80.4445 50.9483 80.4845C50.8523 80.5005 50.7883 80.4565 50.7563 80.3525L50.6483 79.8725C50.6243 79.7765 50.6643 79.7325 50.7682 79.7405C50.9923 79.7485 51.2163 79.7605 51.4403 79.7765C51.6723 79.7845 51.9283 79.7845 52.2083 79.7765C52.4963 79.7685 52.8243 79.7605 53.1923 79.7525V80.3765ZM53.1923 82.3325C52.6803 82.3245 52.2443 82.3325 51.8843 82.3565C51.5243 82.3725 51.2123 82.4005 50.9483 82.4405C50.8523 82.4565 50.7883 82.4165 50.7563 82.3205L50.6483 81.8405C50.6243 81.7445 50.6643 81.6965 50.7682 81.6965C50.9923 81.7125 51.2163 81.7245 51.4403 81.7325C51.6723 81.7405 51.9283 81.7445 52.2083 81.7445C52.4963 81.7365 52.8243 81.7245 53.1923 81.7085V82.3325ZM50.3723 88.6325C49.7963 88.6325 49.2603 88.5525 48.7643 88.3925C48.2763 88.2405 47.8803 88.0085 47.5763 87.6965C47.2803 87.3845 47.1323 86.9965 47.1323 86.5325C47.1323 86.0605 47.2803 85.6685 47.5763 85.3565C47.8803 85.0445 48.2763 84.8125 48.7643 84.6605C49.2603 84.5005 49.7963 84.4205 50.3723 84.4205C50.9483 84.4205 51.4843 84.5005 51.9803 84.6605C52.4763 84.8125 52.8723 85.0445 53.1683 85.3565C53.4643 85.6685 53.6123 86.0605 53.6123 86.5325C53.6123 86.9965 53.4643 87.3845 53.1683 87.6965C52.8723 88.0085 52.4763 88.2405 51.9803 88.3925C51.4843 88.5525 50.9483 88.6325 50.3723 88.6325ZM50.3723 87.9725C50.7883 87.9725 51.1763 87.9165 51.5363 87.8045C51.8963 87.7005 52.1883 87.5445 52.4123 87.3365C52.6443 87.1205 52.7603 86.8525 52.7603 86.5325C52.7603 86.2125 52.6443 85.9445 52.4123 85.7285C52.1883 85.5125 51.8963 85.3525 51.5363 85.2485C51.1763 85.1445 50.7883 85.0925 50.3723 85.0925C49.9563 85.0925 49.5643 85.1445 49.1963 85.2485C48.8363 85.3525 48.5403 85.5125 48.3083 85.7285C48.0843 85.9445 47.9723 86.2125 47.9723 86.5325C47.9723 86.8525 48.0843 87.1205 48.3083 87.3365C48.5403 87.5445 48.8363 87.7005 49.1963 87.8045C49.5643 87.9165 49.9563 87.9725 50.3723 87.9725Z" fill="black"/>
<path d="M76.9361 84.6845C76.8481 84.7325 76.7681 84.7205 76.6961 84.6485L76.4321 84.3605C76.3921 84.3205 76.3721 84.2885 76.3721 84.2645C76.3801 84.2405 76.4121 84.2125 76.4681 84.1805C76.9401 83.9245 77.3801 83.6005 77.7881 83.2085C78.1961 82.8085 78.5281 82.3685 78.7841 81.8885C79.0401 81.4005 79.1801 80.8925 79.2041 80.3645H80.0321C80.0081 80.8045 79.9121 81.2325 79.7441 81.6485C79.5841 82.0645 79.3641 82.4605 79.0841 82.8365C78.8121 83.2125 78.4921 83.5605 78.1241 83.8805C77.7561 84.1925 77.3601 84.4605 76.9361 84.6845ZM81.6881 84.5165C81.5761 84.5165 81.4961 84.4765 81.4481 84.3965C81.2721 84.1725 81.0521 83.9365 80.7881 83.6885C80.5321 83.4405 80.2521 83.2085 79.9481 82.9925C79.6521 82.7685 79.3481 82.5885 79.0361 82.4525L79.3001 81.9485C79.6121 82.0685 79.9321 82.2245 80.2601 82.4165C80.5961 82.6085 80.9081 82.8125 81.1961 83.0285C81.4841 83.2365 81.7161 83.4365 81.8921 83.6285C82.0681 83.8205 82.1561 83.9765 82.1561 84.0965C82.1561 84.1685 82.1321 84.2365 82.0841 84.3005C82.0361 84.3645 81.9761 84.4165 81.9041 84.4565C81.8401 84.4885 81.7681 84.5085 81.6881 84.5165ZM77.0321 80.7365C76.9361 80.7365 76.8721 80.6885 76.8401 80.5925L76.6841 80.0765C76.6681 80.0205 76.6681 79.9845 76.6841 79.9685C76.7001 79.9445 76.7361 79.9365 76.7921 79.9445C77.1441 79.9685 77.5401 79.9885 77.9801 80.0045C78.4281 80.0125 78.8921 80.0165 79.3721 80.0165C79.8521 80.0165 80.3161 80.0125 80.7641 80.0045C81.2201 79.9885 81.6281 79.9685 81.9881 79.9445L81.4601 80.0405L81.9401 79.7765C82.0281 79.7205 82.1001 79.7405 82.1561 79.8365C82.2201 79.9165 82.2801 80.0205 82.3361 80.1485C82.4001 80.2685 82.4601 80.3965 82.5161 80.5325C82.5561 80.6045 82.5641 80.6525 82.5401 80.6765C82.5161 80.7005 82.4241 80.7085 82.2641 80.7005C81.7281 80.6765 81.1441 80.6645 80.5121 80.6645C79.8881 80.6565 79.2721 80.6605 78.6641 80.6765C78.0561 80.6845 77.5121 80.7045 77.0321 80.7365ZM79.1921 78.6845C79.1841 78.5805 79.2321 78.5245 79.3361 78.5165L79.9121 78.4685C80.0161 78.4605 80.0681 78.5085 80.0681 78.6125L79.9961 80.1605H79.2401L79.1921 78.6845ZM84.4481 85.5005C84.3441 85.5165 84.2921 85.4725 84.2921 85.3685V78.4085V78.0965C84.2921 77.9925 84.3401 77.9405 84.4361 77.9405H85.1801C85.2841 77.9405 85.3161 77.9885 85.2761 78.0845C85.2601 78.1405 85.2361 78.1965 85.2041 78.2525C85.1721 78.3085 85.1401 78.3645 85.1081 78.4205V85.2245C85.1081 85.3125 85.0841 85.3725 85.0361 85.4045C84.9961 85.4365 84.8961 85.4605 84.7361 85.4765L84.4481 85.5005ZM84.7121 82.3685C84.2081 82.3685 83.7721 82.3805 83.4041 82.4045C83.0441 82.4205 82.7281 82.4485 82.4561 82.4885C82.4001 82.4965 82.3561 82.4925 82.3241 82.4765C82.3001 82.4525 82.2841 82.4125 82.2761 82.3565L82.1561 81.8645C82.1481 81.8085 82.1521 81.7725 82.1681 81.7565C82.1841 81.7325 82.2201 81.7245 82.2761 81.7325C82.5081 81.7485 82.7401 81.7605 82.9721 81.7685C83.2041 81.7765 83.4601 81.7765 83.7401 81.7685C84.0201 81.7605 84.3441 81.7525 84.7121 81.7445V82.3685ZM78.4001 88.6325C78.3041 88.6645 78.2201 88.6445 78.1481 88.5725L77.9081 88.2725C77.8361 88.2005 77.8481 88.1485 77.9441 88.1165C78.3121 87.9885 78.6801 87.8125 79.0481 87.5885C79.4161 87.3725 79.7561 87.1325 80.0681 86.8685C80.3881 86.5965 80.6521 86.3205 80.8601 86.0405C81.0761 85.7525 81.2121 85.4805 81.2681 85.2245V85.0325C81.2761 84.9365 81.3281 84.8925 81.4241 84.9005L82.1681 84.9485C82.2321 84.9565 82.2681 84.9725 82.2761 84.9965C82.2921 85.0125 82.2841 85.0445 82.2521 85.0925L82.1321 85.3445C82.0681 85.6405 81.9161 85.9525 81.6761 86.2805C81.4441 86.6085 81.1481 86.9285 80.7881 87.2405C80.4361 87.5445 80.0521 87.8165 79.6361 88.0565C79.2201 88.3045 78.8081 88.4965 78.4001 88.6325ZM85.0961 88.6205C85.0001 88.6445 84.9121 88.6205 84.8321 88.5485C84.5361 88.2685 84.1921 88.0045 83.8001 87.7565C83.4081 87.5085 82.9881 87.2805 82.5401 87.0725C82.1001 86.8645 81.6521 86.6885 81.1961 86.5445L81.5801 86.0645C81.8921 86.1605 82.2241 86.2805 82.5761 86.4245C82.9281 86.5605 83.2761 86.7125 83.6201 86.8805C83.9641 87.0405 84.2761 87.2085 84.5561 87.3845C84.8441 87.5525 85.0721 87.7125 85.2401 87.8645C85.4081 88.0245 85.4921 88.1605 85.4921 88.2725C85.4921 88.3445 85.4561 88.4125 85.3841 88.4765C85.3121 88.5405 85.2161 88.5885 85.0961 88.6205ZM91.2135 84.0365C91.1095 84.0525 91.0575 84.0085 91.0575 83.9045V79.2725L91.0455 78.9005C91.0295 78.7965 91.0735 78.7445 91.1775 78.7445H91.8735C91.9775 78.7445 92.0135 78.7925 91.9815 78.8885C91.9655 78.9445 91.9455 78.9965 91.9215 79.0445C91.8975 79.0925 91.8735 79.1405 91.8495 79.1885V83.2805V83.5445V83.7605C91.8495 83.8245 91.8415 83.8725 91.8255 83.9045C91.8175 83.9285 91.7895 83.9485 91.7415 83.9645C91.6935 83.9805 91.6175 83.9965 91.5135 84.0125L91.2135 84.0365ZM91.4535 83.7605V83.0885H95.5695V83.7605H91.4535ZM91.5495 81.2765V80.6285H95.4975V81.2285L91.5495 81.2765ZM95.3055 84.0125C95.2015 84.0285 95.1495 83.9845 95.1495 83.8805V83.5205V83.2805V79.2725L95.1255 78.9005C95.1175 78.7965 95.1655 78.7445 95.2695 78.7445H95.9655C96.0695 78.7445 96.1055 78.7925 96.0735 78.8885C96.0495 78.9445 96.0255 78.9965 96.0015 79.0445C95.9855 79.0925 95.9655 79.1405 95.9415 79.1885V83.7365C95.9415 83.7925 95.9335 83.8365 95.9175 83.8685C95.9095 83.9005 95.8815 83.9245 95.8335 83.9405C95.7855 83.9565 95.7095 83.9725 95.6055 83.9885L95.3055 84.0125ZM98.5695 85.9685C98.4735 85.9765 98.4255 85.9285 98.4255 85.8245V78.4085L98.4135 78.0965C98.4135 77.9925 98.4655 77.9405 98.5695 77.9405H99.3015C99.4055 77.9405 99.4415 77.9885 99.4095 78.0845C99.3855 78.1405 99.3575 78.1965 99.3255 78.2525C99.2935 78.3085 99.2615 78.3645 99.2295 78.4205V85.6925C99.2295 85.7725 99.2055 85.8325 99.1575 85.8725C99.1175 85.9045 99.0175 85.9285 98.8575 85.9445L98.5695 85.9685ZM98.8215 81.3485C98.3335 81.3485 97.9135 81.3605 97.5615 81.3845C97.2175 81.4005 96.9175 81.4285 96.6615 81.4685C96.6055 81.4765 96.5615 81.4725 96.5295 81.4565C96.5055 81.4405 96.4855 81.4045 96.4695 81.3485L96.3615 80.8565C96.3535 80.7925 96.3575 80.7525 96.3735 80.7365C96.3895 80.7205 96.4255 80.7125 96.4815 80.7125C96.7055 80.7285 96.9255 80.7405 97.1415 80.7485C97.3655 80.7485 97.6135 80.7485 97.8855 80.7485C98.1575 80.7405 98.4695 80.7285 98.8215 80.7125V81.3485ZM93.4335 88.6805C93.3375 88.6965 93.2895 88.6525 93.2895 88.5485V85.7645L93.2295 85.3085C93.2135 85.2125 93.2575 85.1645 93.3615 85.1645H94.1415C94.2375 85.1645 94.2695 85.2085 94.2375 85.2965C94.2135 85.3525 94.1895 85.4085 94.1655 85.4645C94.1415 85.5205 94.1175 85.5765 94.0935 85.6325V88.3805C94.0935 88.4685 94.0695 88.5285 94.0215 88.5605C93.9815 88.6005 93.8815 88.6285 93.7215 88.6445L93.4335 88.6805ZM93.8775 87.7685C94.0695 87.7765 94.3335 87.7805 94.6695 87.7805C95.0135 87.7885 95.3935 87.7925 95.8095 87.7925C96.2255 87.7925 96.6535 87.7885 97.0935 87.7805C97.5335 87.7805 97.9455 87.7725 98.3295 87.7565C98.7215 87.7405 99.0535 87.7245 99.3255 87.7085L98.7255 88.0325L99.3855 87.5405C99.4655 87.4845 99.5415 87.4885 99.6135 87.5525C99.7015 87.6485 99.7775 87.7525 99.8415 87.8645C99.9135 87.9765 99.9735 88.0925 100.022 88.2125C100.054 88.2925 100.058 88.3445 100.034 88.3685C100.01 88.3925 99.9175 88.4125 99.7575 88.4285C99.3895 88.4365 98.9775 88.4445 98.5215 88.4525C98.0655 88.4605 97.6055 88.4645 97.1415 88.4645C96.6775 88.4645 96.2295 88.4645 95.7975 88.4645C95.3735 88.4645 94.9975 88.4565 94.6695 88.4405C94.3415 88.4325 94.0895 88.4205 93.9135 88.4045L93.8775 87.7685ZM101.878 85.7285C101.822 85.8085 101.754 85.8165 101.674 85.7525L101.446 85.5845C101.398 85.5445 101.37 85.5085 101.362 85.4765C101.362 85.4445 101.378 85.4045 101.41 85.3565C101.65 84.9885 101.866 84.5245 102.058 83.9645C102.25 83.4045 102.406 82.7765 102.526 82.0805C102.654 81.3765 102.73 80.6285 102.754 79.8365L103.522 79.8245C103.506 80.4565 103.45 81.0605 103.354 81.6365C103.266 82.2125 103.15 82.7525 103.006 83.2565C102.862 83.7605 102.694 84.2205 102.502 84.6365C102.31 85.0525 102.102 85.4165 101.878 85.7285ZM104.23 84.8765C104.134 84.8525 104.074 84.7925 104.05 84.6965C103.994 84.4725 103.91 84.2325 103.798 83.9765C103.694 83.7125 103.57 83.4565 103.426 83.2085C103.29 82.9525 103.146 82.7245 102.994 82.5245L103.21 82.0205C103.402 82.1965 103.586 82.3965 103.762 82.6205C103.938 82.8365 104.09 83.0605 104.218 83.2925C104.346 83.5245 104.446 83.7405 104.518 83.9405C104.598 84.1405 104.638 84.3125 104.638 84.4565C104.63 84.5845 104.586 84.6885 104.506 84.7685C104.434 84.8485 104.342 84.8845 104.23 84.8765ZM104.23 86.0405C104.19 86.0805 104.154 86.1005 104.122 86.1005C104.09 86.1005 104.05 86.0845 104.002 86.0525L103.762 85.8725C103.706 85.8325 103.678 85.8005 103.678 85.7765C103.678 85.7445 103.702 85.7125 103.75 85.6805C104.102 85.3285 104.414 84.8645 104.686 84.2885C104.966 83.7045 105.194 83.0365 105.37 82.2845C105.546 81.5245 105.662 80.7085 105.718 79.8365L106.486 79.8245C106.462 80.4565 106.39 81.0765 106.27 81.6845C106.15 82.2925 105.99 82.8645 105.79 83.4005C105.598 83.9365 105.37 84.4285 105.106 84.8765C104.842 85.3245 104.55 85.7125 104.23 86.0405ZM107.122 85.8605C107.026 85.8365 106.97 85.7725 106.954 85.6685C106.906 85.4125 106.826 85.1245 106.714 84.8045C106.61 84.4765 106.482 84.1205 106.33 83.7365C106.178 83.3445 105.998 82.9405 105.79 82.5245L106.078 82.0325C106.278 82.2805 106.47 82.5685 106.654 82.8965C106.846 83.2245 107.01 83.5565 107.146 83.8925C107.29 84.2205 107.402 84.5245 107.482 84.8045C107.57 85.0845 107.614 85.3085 107.614 85.4765C107.614 85.6045 107.562 85.7085 107.458 85.7885C107.362 85.8685 107.25 85.8925 107.122 85.8605ZM102.058 80.2085C102.002 80.2165 101.958 80.2125 101.926 80.1965C101.902 80.1725 101.878 80.1325 101.854 80.0765L101.734 79.6085C101.702 79.5045 101.738 79.4565 101.842 79.4645C102.21 79.4965 102.57 79.5125 102.922 79.5125C103.282 79.5125 103.65 79.4925 104.026 79.4525L103.618 79.5485L103.99 79.3445C104.07 79.2965 104.138 79.3205 104.194 79.4165L104.446 80.0045C104.47 80.0605 104.478 80.1045 104.47 80.1365C104.47 80.1605 104.446 80.1765 104.398 80.1845C104.358 80.1925 104.286 80.1965 104.182 80.1965C103.782 80.1805 103.41 80.1765 103.066 80.1845C102.73 80.1845 102.394 80.1925 102.058 80.2085ZM105.058 80.2205C104.954 80.2205 104.886 80.1725 104.854 80.0765L104.71 79.6085C104.694 79.5445 104.694 79.5045 104.71 79.4885C104.726 79.4645 104.762 79.4565 104.818 79.4645C105.066 79.4885 105.306 79.5085 105.538 79.5245C105.77 79.5325 106.006 79.5325 106.246 79.5245C106.494 79.5085 106.758 79.4845 107.038 79.4525L106.606 79.5485L107.002 79.3445C107.09 79.2965 107.158 79.3205 107.206 79.4165L107.482 80.0165C107.506 80.0645 107.518 80.1045 107.518 80.1365C107.518 80.1605 107.494 80.1765 107.446 80.1845C107.406 80.1925 107.334 80.1965 107.23 80.1965C106.966 80.1885 106.714 80.1845 106.474 80.1845C106.242 80.1765 106.01 80.1765 105.778 80.1845C105.554 80.1925 105.314 80.2045 105.058 80.2205ZM108.334 82.6805V81.9725H110.278V82.6805H108.334ZM110.122 88.7045C110.018 88.7125 109.966 88.6645 109.966 88.5605V78.3245V78.0965C109.966 78.0325 109.974 77.9925 109.99 77.9765C110.014 77.9525 110.054 77.9405 110.11 77.9405H110.794C110.89 77.9405 110.926 77.9885 110.902 78.0845C110.878 78.1405 110.85 78.1965 110.818 78.2525C110.786 78.3085 110.758 78.3645 110.734 78.4205V88.4405C110.734 88.5205 110.71 88.5765 110.662 88.6085C110.622 88.6485 110.526 88.6765 110.374 88.6925L110.122 88.7045ZM108.118 88.4045C108.022 88.4125 107.974 88.3685 107.974 88.2725V78.5405L107.962 78.3245C107.962 78.2285 108.014 78.1805 108.118 78.1805H108.73C108.834 78.1805 108.874 78.2285 108.85 78.3245C108.842 78.3805 108.822 78.4365 108.79 78.4925C108.766 78.5485 108.746 78.6045 108.73 78.6605V88.1405C108.73 88.2285 108.706 88.2885 108.658 88.3205C108.618 88.3525 108.522 88.3765 108.37 88.3925L108.118 88.4045ZM118.339 83.2085C117.907 83.2085 117.515 83.1205 117.163 82.9445C116.811 82.7605 116.531 82.5045 116.323 82.1765C116.115 81.8405 116.011 81.4405 116.011 80.9765C116.011 80.5125 116.115 80.1125 116.323 79.7765C116.531 79.4405 116.811 79.1845 117.163 79.0085C117.515 78.8325 117.907 78.7445 118.339 78.7445C118.755 78.7445 119.139 78.8325 119.491 79.0085C119.843 79.1845 120.127 79.4405 120.343 79.7765C120.567 80.1125 120.679 80.5125 120.679 80.9765C120.679 81.4405 120.567 81.8405 120.343 82.1765C120.127 82.5045 119.843 82.7605 119.491 82.9445C119.139 83.1205 118.755 83.2085 118.339 83.2085ZM118.339 82.5725C118.619 82.5725 118.875 82.5125 119.107 82.3925C119.339 82.2645 119.527 82.0845 119.671 81.8525C119.815 81.6125 119.887 81.3205 119.887 80.9765C119.887 80.6245 119.815 80.3325 119.671 80.1005C119.527 79.8685 119.339 79.6925 119.107 79.5725C118.875 79.4445 118.619 79.3805 118.339 79.3805C117.891 79.3805 117.523 79.5205 117.235 79.8005C116.947 80.0725 116.803 80.4645 116.803 80.9765C116.803 81.4885 116.947 81.8845 117.235 82.1645C117.523 82.4365 117.891 82.5725 118.339 82.5725ZM122.203 81.3365V80.6405H124.315V81.3365H122.203ZM124.099 83.5925C123.995 83.6085 123.943 83.5645 123.943 83.4605V78.3605L123.931 78.0965C123.931 78.0325 123.943 77.9925 123.967 77.9765C123.991 77.9525 124.031 77.9405 124.087 77.9405H124.807C124.911 77.9405 124.947 77.9885 124.915 78.0845C124.891 78.1405 124.863 78.1965 124.831 78.2525C124.799 78.3085 124.771 78.3645 124.747 78.4205V83.3285C124.747 83.4085 124.723 83.4685 124.675 83.5085C124.635 83.5405 124.535 83.5645 124.375 83.5805L124.099 83.5925ZM121.903 83.6165C121.799 83.6245 121.747 83.5765 121.747 83.4725V78.6125V78.3485C121.747 78.2445 121.795 78.1925 121.891 78.1925H122.491C122.555 78.1925 122.595 78.2045 122.611 78.2285C122.627 78.2445 122.631 78.2845 122.623 78.3485C122.615 78.3965 122.603 78.4525 122.587 78.5165C122.579 78.5725 122.567 78.6285 122.551 78.6845V83.3405C122.551 83.4205 122.527 83.4805 122.479 83.5205C122.439 83.5525 122.339 83.5765 122.179 83.5925L121.903 83.6165ZM118.759 87.8885C118.943 87.9045 119.227 87.9165 119.611 87.9245C120.003 87.9325 120.447 87.9325 120.943 87.9245C121.439 87.9245 121.939 87.9205 122.443 87.9125C122.955 87.9045 123.427 87.8925 123.859 87.8765C124.291 87.8605 124.635 87.8405 124.891 87.8165L124.039 88.2725L124.819 87.6845C124.899 87.6285 124.975 87.6325 125.047 87.6965C125.127 87.7845 125.199 87.8765 125.263 87.9725C125.335 88.0765 125.395 88.1845 125.443 88.2965C125.467 88.3525 125.475 88.3925 125.467 88.4165C125.467 88.4485 125.443 88.4685 125.395 88.4765C125.355 88.4845 125.283 88.4925 125.179 88.5005C124.803 88.5085 124.371 88.5165 123.883 88.5245C123.395 88.5405 122.891 88.5485 122.371 88.5485C121.851 88.5485 121.351 88.5485 120.871 88.5485C120.391 88.5485 119.967 88.5405 119.599 88.5245C119.239 88.5165 118.975 88.5045 118.807 88.4885L118.759 87.8885ZM118.459 88.7285C118.355 88.7525 118.303 88.7085 118.303 88.5965V86.4365L118.231 85.9685C118.215 85.8645 118.259 85.8165 118.363 85.8245L119.131 85.9085C119.235 85.9245 119.291 85.9765 119.299 86.0645L119.311 86.1365L119.095 86.3765V88.4165C119.095 88.4965 119.071 88.5565 119.023 88.5965C118.983 88.6365 118.887 88.6685 118.735 88.6925L118.459 88.7285ZM118.855 86.5445V85.9325H124.291V86.5445H118.855ZM118.507 84.7685C118.403 84.7685 118.335 84.7165 118.303 84.6125L118.171 84.2165C118.147 84.1205 118.183 84.0725 118.279 84.0725H124.315L124.267 84.6845C123.243 84.6765 122.271 84.6805 121.351 84.6965C120.439 84.7125 119.491 84.7365 118.507 84.7685ZM124.075 86.6765C123.971 86.6845 123.919 86.6365 123.919 86.5325L123.931 84.0965H123.943L124.111 83.9645C124.191 83.8925 124.271 83.8805 124.351 83.9285C124.415 83.9765 124.491 84.0325 124.579 84.0965C124.667 84.1605 124.747 84.2245 124.819 84.2885C124.883 84.3605 124.879 84.4325 124.807 84.5045L124.723 84.5885L124.687 86.3765C124.687 86.4805 124.635 86.5485 124.531 86.5805C124.491 86.5885 124.443 86.6005 124.387 86.6165C124.331 86.6245 124.275 86.6365 124.219 86.6525C124.171 86.6605 124.123 86.6685 124.075 86.6765ZM127.635 83.6045C127.531 83.6205 127.479 83.5765 127.479 83.4725V79.2245L127.455 78.8645C127.447 78.7605 127.495 78.7085 127.599 78.7085H128.295C128.399 78.7085 128.435 78.7565 128.403 78.8525C128.387 78.9085 128.367 78.9605 128.343 79.0085C128.319 79.0485 128.295 79.0925 128.271 79.1405V82.8605V83.1365V83.3525C128.271 83.4085 128.263 83.4525 128.247 83.4845C128.239 83.5085 128.211 83.5285 128.163 83.5445C128.115 83.5605 128.039 83.5725 127.935 83.5805L127.635 83.6045ZM127.875 83.3285V82.6685H131.967V83.3285H127.875ZM127.971 81.0605V80.4125H131.883V81.0125L127.971 81.0605ZM131.691 83.5805C131.595 83.5965 131.547 83.5525 131.547 83.4485V83.1125V82.8605V79.2245L131.523 78.8645C131.515 78.7605 131.559 78.7085 131.655 78.7085H132.363C132.459 78.7085 132.491 78.7565 132.459 78.8525C132.435 78.9085 132.411 78.9605 132.387 79.0085C132.371 79.0485 132.355 79.0925 132.339 79.1405V83.3285C132.339 83.3845 132.331 83.4285 132.315 83.4605C132.299 83.4845 132.267 83.5045 132.219 83.5205C132.171 83.5365 132.095 83.5485 131.991 83.5565L131.691 83.5805ZM134.943 84.1445C134.839 84.1605 134.787 84.1165 134.787 84.0125V78.3845L134.775 78.0965C134.775 77.9925 134.827 77.9405 134.931 77.9405H135.663C135.767 77.9405 135.803 77.9885 135.771 78.0845C135.747 78.1405 135.719 78.1965 135.687 78.2525C135.655 78.3085 135.623 78.3645 135.591 78.4205V83.8805C135.591 83.9605 135.567 84.0205 135.519 84.0605C135.479 84.0925 135.383 84.1165 135.231 84.1325L134.943 84.1445ZM135.219 81.1205C134.715 81.1125 134.283 81.1205 133.923 81.1445C133.571 81.1685 133.263 81.2005 132.999 81.2405C132.943 81.2485 132.903 81.2445 132.879 81.2285C132.855 81.2045 132.831 81.1645 132.807 81.1085L132.699 80.6045C132.691 80.5485 132.695 80.5125 132.711 80.4965C132.727 80.4725 132.763 80.4645 132.819 80.4725C133.043 80.4965 133.267 80.5125 133.491 80.5205C133.723 80.5205 133.975 80.5205 134.247 80.5205C134.527 80.5125 134.851 80.5045 135.219 80.4965V81.1205ZM129.891 88.7285C129.787 88.7365 129.735 88.6925 129.735 88.5965L129.699 85.5725L129.579 84.8045C129.555 84.7005 129.599 84.6565 129.711 84.6725L130.431 84.7445C130.527 84.7605 130.571 84.8205 130.563 84.9245L130.503 85.2125V88.4405C130.503 88.5205 130.479 88.5805 130.431 88.6205C130.383 88.6605 130.283 88.6885 130.131 88.7045L129.891 88.7285ZM130.059 85.5125V84.9005L135.051 84.8645V85.5125H130.059ZM130.203 88.4525V87.8045H135.075V88.4525H130.203ZM134.895 84.7085C134.975 84.6445 135.055 84.6405 135.135 84.6965C135.199 84.7445 135.263 84.7925 135.327 84.8405C135.399 84.8885 135.463 84.9405 135.519 84.9965C135.583 85.0445 135.643 85.1005 135.699 85.1645C135.771 85.2445 135.763 85.3085 135.675 85.3565C135.643 85.3725 135.611 85.3885 135.579 85.4045C135.555 85.4125 135.527 85.4245 135.495 85.4405L135.423 88.3205C135.415 88.4005 135.387 88.4605 135.339 88.5005C135.299 88.5485 135.203 88.5845 135.051 88.6085L134.847 88.6325C134.743 88.6565 134.691 88.6165 134.691 88.5125V85.1645L134.643 84.9245L134.895 84.7085Z" fill="black"/>
<path d="M1109.93 84.1085C1109.83 84.1485 1109.75 84.1325 1109.68 84.0605L1109.41 83.7605C1109.37 83.7205 1109.35 83.6885 1109.35 83.6645C1109.36 83.6405 1109.39 83.6165 1109.45 83.5925C1109.91 83.3605 1110.35 83.0645 1110.76 82.7045C1111.17 82.3365 1111.5 81.9285 1111.77 81.4805C1112.03 81.0325 1112.17 80.5645 1112.2 80.0765H1113.03C1113 80.4845 1112.91 80.8845 1112.74 81.2765C1112.58 81.6685 1112.36 82.0405 1112.08 82.3925C1111.8 82.7445 1111.47 83.0685 1111.11 83.3645C1110.75 83.6525 1110.35 83.9005 1109.93 84.1085ZM1114.71 83.9525C1114.6 83.9525 1114.52 83.9125 1114.45 83.8325C1114.28 83.6325 1114.06 83.4205 1113.79 83.1965C1113.54 82.9645 1113.25 82.7485 1112.94 82.5485C1112.64 82.3405 1112.33 82.1725 1112.02 82.0445L1112.28 81.5525C1112.59 81.6565 1112.91 81.7965 1113.24 81.9725C1113.58 82.1405 1113.89 82.3245 1114.18 82.5245C1114.47 82.7165 1114.71 82.9045 1114.89 83.0885C1115.07 83.2645 1115.16 83.4125 1115.16 83.5325C1115.16 83.6045 1115.14 83.6725 1115.09 83.7365C1115.05 83.7925 1115 83.8405 1114.93 83.8805C1114.87 83.9125 1114.79 83.9365 1114.71 83.9525ZM1110.01 80.4365C1109.92 80.4445 1109.85 80.3965 1109.82 80.2925L1109.65 79.8005C1109.65 79.7365 1109.65 79.6965 1109.65 79.6805C1109.67 79.6565 1109.71 79.6485 1109.76 79.6565C1110.12 79.6805 1110.53 79.7005 1110.97 79.7165C1111.42 79.7245 1111.88 79.7325 1112.35 79.7405C1112.83 79.7405 1113.3 79.7365 1113.76 79.7285C1114.21 79.7125 1114.62 79.6925 1114.98 79.6685L1114.44 79.7525L1114.93 79.4885C1115.02 79.4325 1115.09 79.4485 1115.15 79.5365C1115.21 79.6245 1115.27 79.7325 1115.33 79.8605C1115.39 79.9805 1115.45 80.1045 1115.51 80.2325C1115.55 80.3125 1115.56 80.3645 1115.53 80.3885C1115.51 80.4045 1115.42 80.4085 1115.26 80.4005C1114.71 80.3765 1114.13 80.3645 1113.51 80.3645C1112.88 80.3565 1112.27 80.3605 1111.66 80.3765C1111.06 80.3925 1110.51 80.4125 1110.01 80.4365ZM1112.17 78.4685C1112.17 78.3645 1112.22 78.3085 1112.32 78.3005L1112.91 78.2645C1113.01 78.2565 1113.06 78.3005 1113.05 78.3965L1112.99 79.8725H1112.23L1112.17 78.4685ZM1117.21 84.4325C1117.11 84.4485 1117.06 84.4045 1117.06 84.3005V78.3845L1117.05 78.0965C1117.05 77.9925 1117.1 77.9405 1117.2 77.9405H1117.93C1118.04 77.9405 1118.07 77.9885 1118.04 78.0845C1118.02 78.1405 1117.99 78.1965 1117.96 78.2525C1117.93 78.3085 1117.89 78.3645 1117.86 78.4205V84.1565C1117.86 84.2445 1117.84 84.3045 1117.79 84.3365C1117.75 84.3685 1117.65 84.3925 1117.5 84.4085L1117.21 84.4325ZM1117.47 81.9005C1116.99 81.8925 1116.59 81.9005 1116.24 81.9245C1115.9 81.9405 1115.6 81.9685 1115.34 82.0085C1115.25 82.0245 1115.18 81.9805 1115.15 81.8765L1115.04 81.3845C1115.03 81.3285 1115.03 81.2925 1115.04 81.2765C1115.06 81.2525 1115.09 81.2445 1115.15 81.2525C1115.37 81.2685 1115.6 81.2805 1115.82 81.2885C1116.05 81.2965 1116.29 81.3005 1116.55 81.3005C1116.82 81.2925 1117.12 81.2805 1117.47 81.2645V81.9005ZM1114.65 88.6685C1114.05 88.6685 1113.51 88.5965 1113.01 88.4525C1112.53 88.3085 1112.13 88.0885 1111.84 87.7925C1111.55 87.5045 1111.41 87.1405 1111.41 86.7005C1111.41 86.2605 1111.55 85.8965 1111.84 85.6085C1112.13 85.3125 1112.53 85.0925 1113.01 84.9485C1113.51 84.7965 1114.05 84.7205 1114.65 84.7205C1115.24 84.7205 1115.78 84.7965 1116.27 84.9485C1116.76 85.0925 1117.15 85.3125 1117.44 85.6085C1117.74 85.8965 1117.89 86.2605 1117.89 86.7005C1117.89 87.1405 1117.74 87.5045 1117.44 87.7925C1117.15 88.0885 1116.76 88.3085 1116.27 88.4525C1115.78 88.5965 1115.24 88.6685 1114.65 88.6685ZM1114.65 88.0085C1115.08 88.0085 1115.47 87.9605 1115.83 87.8645C1116.19 87.7765 1116.49 87.6365 1116.71 87.4445C1116.93 87.2525 1117.05 87.0045 1117.05 86.7005C1117.05 86.4045 1116.93 86.1605 1116.71 85.9685C1116.49 85.7685 1116.19 85.6245 1115.83 85.5365C1115.47 85.4405 1115.08 85.3925 1114.65 85.3925C1114.21 85.3925 1113.81 85.4405 1113.45 85.5365C1113.08 85.6245 1112.78 85.7685 1112.56 85.9685C1112.33 86.1605 1112.22 86.4045 1112.22 86.7005C1112.22 87.0045 1112.33 87.2525 1112.56 87.4445C1112.78 87.6365 1113.08 87.7765 1113.45 87.8645C1113.81 87.9605 1114.21 88.0085 1114.65 88.0085ZM1121.9 83.1005C1121.81 83.1325 1121.72 83.1125 1121.65 83.0405L1121.37 82.7285C1121.33 82.6885 1121.32 82.6565 1121.33 82.6325C1121.33 82.6085 1121.36 82.5925 1121.41 82.5845C1121.82 82.4885 1122.21 82.3565 1122.6 82.1885C1122.99 82.0125 1123.35 81.8085 1123.68 81.5765C1124.01 81.3445 1124.27 81.0965 1124.48 80.8325C1124.69 80.5605 1124.81 80.2805 1124.83 79.9925H1125.68C1125.64 80.3445 1125.51 80.6845 1125.27 81.0125C1125.04 81.3325 1124.74 81.6325 1124.37 81.9125C1124.01 82.1845 1123.62 82.4245 1123.19 82.6325C1122.75 82.8325 1122.33 82.9885 1121.9 83.1005ZM1128.43 83.0765C1128.33 83.1005 1128.24 83.0885 1128.15 83.0405C1127.92 82.8725 1127.66 82.7125 1127.36 82.5605C1127.07 82.4005 1126.75 82.2485 1126.43 82.1045C1126.1 81.9605 1125.78 81.8365 1125.47 81.7325C1125.15 81.6205 1124.86 81.5405 1124.59 81.4925L1124.94 81.0485C1125.2 81.0885 1125.5 81.1565 1125.84 81.2525C1126.17 81.3405 1126.51 81.4485 1126.86 81.5765C1127.21 81.6965 1127.53 81.8285 1127.83 81.9725C1128.13 82.1085 1128.36 82.2405 1128.54 82.3685C1128.72 82.4965 1128.81 82.6125 1128.81 82.7165C1128.81 82.7965 1128.78 82.8685 1128.71 82.9325C1128.63 82.9965 1128.54 83.0445 1128.43 83.0765ZM1121.97 80.2685C1121.88 80.2685 1121.81 80.2205 1121.78 80.1245L1121.64 79.6085C1121.62 79.5525 1121.62 79.5165 1121.64 79.5005C1121.65 79.4765 1121.69 79.4685 1121.75 79.4765C1122.05 79.4925 1122.42 79.5085 1122.85 79.5245C1123.28 79.5325 1123.75 79.5405 1124.24 79.5485C1124.74 79.5485 1125.23 79.5485 1125.73 79.5485C1126.23 79.5405 1126.71 79.5325 1127.15 79.5245C1127.59 79.5085 1127.97 79.4885 1128.29 79.4645L1127.77 79.5845L1128.23 79.3565C1128.31 79.3165 1128.39 79.3445 1128.44 79.4405L1128.79 80.0765C1128.84 80.1485 1128.85 80.1965 1128.83 80.2205C1128.8 80.2445 1128.71 80.2525 1128.55 80.2445C1128.06 80.2365 1127.51 80.2325 1126.91 80.2325C1126.31 80.2245 1125.69 80.2245 1125.07 80.2325C1124.45 80.2325 1123.87 80.2365 1123.33 80.2445C1122.79 80.2445 1122.34 80.2525 1121.97 80.2685ZM1124.88 78.3005C1124.87 78.1965 1124.92 78.1405 1125.02 78.1325L1125.57 78.0725C1125.67 78.0645 1125.72 78.1125 1125.72 78.2165L1125.62 79.7045H1124.91L1124.88 78.3005ZM1120.33 84.5165C1120.23 84.5165 1120.16 84.4725 1120.13 84.3845L1119.98 83.9165C1119.97 83.8685 1119.97 83.8365 1119.98 83.8205C1120 83.7965 1120.03 83.7845 1120.09 83.7845C1120.48 83.7925 1120.94 83.8005 1121.47 83.8085C1122 83.8165 1122.56 83.8245 1123.16 83.8325C1123.76 83.8405 1124.37 83.8445 1124.99 83.8445C1125.6 83.8445 1126.21 83.8445 1126.8 83.8445C1127.39 83.8365 1127.94 83.8285 1128.45 83.8205C1128.97 83.8125 1129.41 83.8045 1129.79 83.7965L1129.28 83.9525L1129.8 83.5925C1129.84 83.5525 1129.87 83.5365 1129.91 83.5445C1129.94 83.5525 1129.97 83.5765 1130 83.6165C1130.07 83.7125 1130.13 83.8205 1130.18 83.9405C1130.25 84.0525 1130.31 84.1765 1130.36 84.3125C1130.38 84.3605 1130.39 84.4005 1130.39 84.4325C1130.39 84.4565 1130.36 84.4725 1130.31 84.4805C1130.27 84.4885 1130.2 84.4925 1130.1 84.4925C1129.47 84.4845 1128.79 84.4805 1128.06 84.4805C1127.34 84.4725 1126.61 84.4685 1125.87 84.4685C1125.14 84.4685 1124.42 84.4725 1123.73 84.4805C1123.03 84.4885 1122.39 84.4965 1121.81 84.5045C1121.22 84.5045 1120.73 84.5085 1120.33 84.5165ZM1124.96 86.4845C1124.86 86.5005 1124.81 86.4565 1124.81 86.3525V84.2165H1125.63V86.2085C1125.63 86.2965 1125.61 86.3565 1125.56 86.3885C1125.52 86.4205 1125.42 86.4445 1125.26 86.4605L1124.96 86.4845ZM1122.11 88.6805C1122.01 88.6965 1121.96 88.6525 1121.96 88.5485V86.5325L1121.9 86.1005C1121.89 86.0045 1121.93 85.9565 1122.03 85.9565H1122.8C1122.91 85.9565 1122.94 86.0005 1122.9 86.0885C1122.87 86.1445 1122.85 86.2005 1122.83 86.2565C1122.81 86.3045 1122.79 86.3565 1122.75 86.4125V88.3925C1122.75 88.4725 1122.73 88.5325 1122.68 88.5725C1122.64 88.6125 1122.55 88.6405 1122.39 88.6565L1122.11 88.6805ZM1122.56 87.7685C1122.75 87.7765 1123.03 87.7845 1123.39 87.7925C1123.76 87.8005 1124.17 87.8045 1124.61 87.8045C1125.06 87.8045 1125.52 87.8005 1125.98 87.7925C1126.45 87.7845 1126.89 87.7725 1127.3 87.7565C1127.72 87.7485 1128.06 87.7365 1128.33 87.7205L1127.73 88.0445L1128.37 87.6125C1128.46 87.5565 1128.54 87.5605 1128.62 87.6245C1128.71 87.7125 1128.79 87.8045 1128.85 87.9005C1128.92 88.0045 1128.98 88.1085 1129.03 88.2125C1129.05 88.2605 1129.06 88.2965 1129.05 88.3205C1129.05 88.3525 1129.03 88.3725 1128.98 88.3805C1128.94 88.3965 1128.87 88.4085 1128.77 88.4165C1128.38 88.4325 1127.95 88.4445 1127.48 88.4525C1127.01 88.4605 1126.52 88.4645 1126.02 88.4645C1125.52 88.4645 1125.05 88.4645 1124.59 88.4645C1124.13 88.4645 1123.73 88.4565 1123.38 88.4405C1123.03 88.4325 1122.77 88.4205 1122.6 88.4045L1122.56 87.7685ZM1134.87 83.8445C1134.34 83.8445 1133.86 83.7445 1133.43 83.5445C1133.01 83.3445 1132.67 83.0565 1132.41 82.6805C1132.16 82.2965 1132.04 81.8445 1132.04 81.3245C1132.04 80.8045 1132.16 80.3565 1132.41 79.9805C1132.67 79.6045 1133.01 79.3165 1133.43 79.1165C1133.86 78.9085 1134.34 78.8045 1134.87 78.8045C1135.38 78.8045 1135.85 78.9085 1136.27 79.1165C1136.71 79.3165 1137.05 79.6045 1137.31 79.9805C1137.56 80.3565 1137.69 80.8045 1137.69 81.3245C1137.69 81.8445 1137.56 82.2965 1137.31 82.6805C1137.05 83.0565 1136.71 83.3445 1136.27 83.5445C1135.85 83.7445 1135.38 83.8445 1134.87 83.8445ZM1134.87 83.2325C1135.24 83.2325 1135.57 83.1565 1135.87 83.0045C1136.17 82.8525 1136.41 82.6365 1136.6 82.3565C1136.78 82.0685 1136.87 81.7245 1136.87 81.3245C1136.87 80.9245 1136.78 80.5845 1136.6 80.3045C1136.41 80.0245 1136.17 79.8085 1135.87 79.6565C1135.57 79.4965 1135.24 79.4165 1134.87 79.4165C1134.49 79.4165 1134.14 79.4965 1133.84 79.6565C1133.53 79.8085 1133.29 80.0245 1133.12 80.3045C1132.94 80.5845 1132.85 80.9245 1132.85 81.3245C1132.85 81.7245 1132.94 82.0685 1133.12 82.3565C1133.29 82.6365 1133.53 82.8525 1133.84 83.0045C1134.14 83.1565 1134.49 83.2325 1134.87 83.2325ZM1139.6 88.7045C1139.49 88.7125 1139.44 88.6645 1139.44 88.5605V78.4445V78.0965C1139.44 77.9925 1139.49 77.9405 1139.59 77.9405H1140.32C1140.42 77.9405 1140.46 77.9885 1140.44 78.0845C1140.41 78.1405 1140.37 78.1965 1140.34 78.2525C1140.32 78.3085 1140.29 78.3645 1140.26 78.4205V88.4285C1140.26 88.5085 1140.23 88.5645 1140.19 88.5965C1140.14 88.6365 1140.04 88.6645 1139.89 88.6805L1139.6 88.7045ZM1131.91 85.9925C1131.8 85.9925 1131.73 85.9445 1131.7 85.8485L1131.56 85.4165C1131.54 85.3605 1131.54 85.3245 1131.56 85.3085C1131.57 85.2845 1131.61 85.2725 1131.67 85.2725C1132.23 85.2645 1132.85 85.2525 1133.53 85.2365C1134.2 85.2125 1134.89 85.1805 1135.6 85.1405C1136.31 85.1005 1137.02 85.0565 1137.71 85.0085C1138.42 84.9525 1139.08 84.8885 1139.69 84.8165C1139.76 84.8085 1139.8 84.8165 1139.81 84.8405C1139.84 84.8565 1139.85 84.8925 1139.86 84.9485L1139.87 85.2245C1139.88 85.3205 1139.84 85.3765 1139.74 85.3925C1139.13 85.4805 1138.47 85.5605 1137.79 85.6325C1137.1 85.6965 1136.41 85.7525 1135.71 85.8005C1135.01 85.8485 1134.34 85.8885 1133.69 85.9205C1133.05 85.9525 1132.45 85.9765 1131.91 85.9925ZM1148.21 83.1125C1148.16 83.1045 1148.12 83.0845 1148.09 83.0525C1148.08 83.0205 1148.07 82.9765 1148.08 82.9205C1148.1 82.5685 1148.1 82.1805 1148.07 81.7565C1148.04 81.3245 1147.97 80.9405 1147.88 80.6045C1147.84 80.5085 1147.87 80.4445 1147.96 80.4125L1148.25 80.3165C1148.34 80.2845 1148.42 80.3125 1148.46 80.4005C1148.58 80.6405 1148.67 80.9005 1148.74 81.1805C1148.82 81.4605 1148.88 81.7325 1148.92 81.9965C1148.96 82.2605 1148.98 82.4965 1148.98 82.7045C1148.97 82.8005 1148.95 82.8805 1148.91 82.9445C1148.87 83.0085 1148.82 83.0565 1148.75 83.0885C1148.69 83.1205 1148.61 83.1405 1148.51 83.1485C1148.42 83.1485 1148.32 83.1365 1148.21 83.1125ZM1151.63 83.4245C1151.74 83.1445 1151.83 82.8365 1151.88 82.5005C1151.95 82.1645 1151.99 81.8285 1152 81.4925C1152.03 81.1485 1152.03 80.8325 1152.02 80.5445C1152.01 80.4485 1152.05 80.3805 1152.15 80.3405C1152.28 80.2925 1152.4 80.2685 1152.51 80.2685C1152.62 80.2685 1152.71 80.2925 1152.78 80.3405C1152.86 80.3805 1152.9 80.4485 1152.9 80.5445C1152.92 80.7365 1152.92 80.9525 1152.89 81.1925C1152.87 81.4325 1152.83 81.6845 1152.77 81.9485C1152.72 82.2045 1152.64 82.4605 1152.54 82.7165C1152.46 82.9645 1152.35 83.1965 1152.22 83.4125L1151.63 83.4245ZM1146.84 79.9565C1146.74 79.9565 1146.67 79.9045 1146.64 79.8005L1146.5 79.2485C1146.48 79.1925 1146.48 79.1565 1146.5 79.1405C1146.51 79.1165 1146.55 79.1085 1146.6 79.1165C1146.91 79.1325 1147.3 79.1485 1147.78 79.1645C1148.27 79.1725 1148.8 79.1805 1149.36 79.1885C1149.93 79.1885 1150.5 79.1885 1151.07 79.1885C1151.64 79.1805 1152.16 79.1725 1152.64 79.1645C1153.13 79.1485 1153.52 79.1285 1153.83 79.1045L1153.31 79.2125L1153.77 78.9605C1153.82 78.9285 1153.85 78.9205 1153.88 78.9365C1153.91 78.9445 1153.94 78.9725 1153.97 79.0205L1154.33 79.7405C1154.38 79.8205 1154.39 79.8725 1154.37 79.8965C1154.34 79.9205 1154.25 79.9285 1154.09 79.9205C1153.73 79.9125 1153.3 79.9085 1152.8 79.9085C1152.29 79.9085 1151.76 79.9125 1151.19 79.9205C1150.63 79.9205 1150.07 79.9245 1149.52 79.9325C1148.98 79.9325 1148.47 79.9365 1148 79.9445C1147.53 79.9445 1147.15 79.9485 1146.84 79.9565ZM1146.84 83.8925C1146.74 83.9005 1146.67 83.8525 1146.64 83.7485L1146.5 83.2205C1146.48 83.1565 1146.48 83.1165 1146.5 83.1005C1146.51 83.0765 1146.55 83.0685 1146.6 83.0765C1146.91 83.0925 1147.3 83.1085 1147.78 83.1245C1148.27 83.1325 1148.79 83.1365 1149.35 83.1365C1149.92 83.1365 1150.49 83.1365 1151.06 83.1365C1151.63 83.1285 1152.17 83.1205 1152.66 83.1125C1153.17 83.0965 1153.58 83.0805 1153.91 83.0645L1153.38 83.1605L1153.88 82.8965C1153.92 82.8645 1153.96 82.8525 1153.98 82.8605C1154.02 82.8685 1154.04 82.9005 1154.07 82.9565L1154.43 83.6885C1154.47 83.7685 1154.48 83.8205 1154.45 83.8445C1154.43 83.8685 1154.34 83.8765 1154.18 83.8685C1153.62 83.8525 1153.02 83.8405 1152.35 83.8325C1151.7 83.8245 1151.03 83.8205 1150.35 83.8205C1149.68 83.8205 1149.03 83.8285 1148.42 83.8445C1147.81 83.8525 1147.28 83.8685 1146.84 83.8925ZM1145.58 87.2525C1145.48 87.2525 1145.41 87.2085 1145.38 87.1205L1145.25 86.6405C1145.23 86.5765 1145.23 86.5365 1145.24 86.5205C1145.25 86.4965 1145.29 86.4885 1145.34 86.4965C1145.74 86.5045 1146.19 86.5165 1146.71 86.5325C1147.24 86.5405 1147.8 86.5485 1148.39 86.5565C1148.99 86.5565 1149.6 86.5565 1150.22 86.5565C1150.84 86.5565 1151.45 86.5565 1152.04 86.5565C1152.63 86.5485 1153.18 86.5405 1153.68 86.5325C1154.2 86.5245 1154.64 86.5125 1155.02 86.4965L1154.54 86.6645L1155.04 86.2925C1155.09 86.2525 1155.13 86.2365 1155.16 86.2445C1155.19 86.2525 1155.22 86.2805 1155.26 86.3285C1155.32 86.4325 1155.38 86.5485 1155.44 86.6765C1155.5 86.7965 1155.56 86.9205 1155.62 87.0485C1155.64 87.1045 1155.65 87.1485 1155.64 87.1805C1155.64 87.2045 1155.62 87.2205 1155.57 87.2285C1155.53 87.2365 1155.46 87.2405 1155.35 87.2405C1154.71 87.2325 1154.03 87.2285 1153.3 87.2285C1152.58 87.2205 1151.85 87.2165 1151.1 87.2165C1150.37 87.2165 1149.65 87.2205 1148.96 87.2285C1148.27 87.2285 1147.63 87.2325 1147.05 87.2405C1146.47 87.2405 1145.98 87.2445 1145.58 87.2525ZM1150.01 86.9285L1149.99 84.8285L1149.96 84.3125C1149.96 84.2085 1150.02 84.1565 1150.12 84.1565H1150.8C1150.87 84.1565 1150.9 84.1685 1150.91 84.1925C1150.93 84.2085 1150.93 84.2445 1150.91 84.3005C1150.9 84.3325 1150.89 84.3645 1150.88 84.3965C1150.86 84.4205 1150.84 84.4445 1150.83 84.4685L1150.8 86.9285H1150.01ZM1161.47 82.9925C1161.37 83.0165 1161.32 82.9725 1161.32 82.8605V82.5485V82.3205V78.8885H1161.31L1161.61 78.6845C1161.68 78.6285 1161.76 78.6285 1161.85 78.6845C1161.93 78.7405 1162.01 78.8045 1162.09 78.8765C1162.17 78.9405 1162.24 79.0045 1162.31 79.0685C1162.38 79.1405 1162.38 79.2085 1162.3 79.2725C1162.26 79.2885 1162.23 79.3085 1162.2 79.3325C1162.17 79.3565 1162.14 79.3805 1162.12 79.4045V82.6685C1162.12 82.7565 1162.09 82.8205 1162.04 82.8605C1162 82.9005 1161.9 82.9325 1161.74 82.9565L1161.47 82.9925ZM1157.89 82.8365L1157.83 82.1645H1161.65V82.8365H1157.89ZM1157.5 83.1245C1157.39 83.1405 1157.34 83.0965 1157.34 82.9925L1157.28 79.4405L1157.2 78.7685C1157.17 78.6645 1157.21 78.6245 1157.32 78.6485L1158 78.7325C1158.1 78.7565 1158.14 78.8165 1158.13 78.9125L1158.07 79.2725L1158.11 82.2845V82.4525V82.8365C1158.11 82.9165 1158.08 82.9765 1158.04 83.0165C1158 83.0565 1157.9 83.0845 1157.74 83.1005L1157.5 83.1245ZM1157.7 79.5365V78.9005L1161.83 78.8645V79.5365H1157.7ZM1164.18 83.4845C1164.08 83.4925 1164.04 83.4445 1164.04 83.3405V78.3725L1164.02 78.0965C1164.02 78.0325 1164.04 77.9925 1164.06 77.9765C1164.08 77.9525 1164.12 77.9405 1164.18 77.9405H1164.91C1165.02 77.9405 1165.05 77.9885 1165.02 78.0845C1165 78.1405 1164.97 78.1965 1164.94 78.2525C1164.9 78.3085 1164.87 78.3645 1164.84 78.4205V83.2085C1164.84 83.2885 1164.82 83.3485 1164.77 83.3885C1164.73 83.4205 1164.63 83.4445 1164.48 83.4605L1164.18 83.4845ZM1164.59 81.7685V81.1325H1166.15L1166.46 80.9405C1166.54 80.8925 1166.61 80.9125 1166.66 81.0005C1166.7 81.0965 1166.74 81.2045 1166.77 81.3245C1166.81 81.4445 1166.84 81.5605 1166.87 81.6725C1166.89 81.7765 1166.85 81.8245 1166.75 81.8165L1164.59 81.7685ZM1159.03 87.8765C1159.22 87.9005 1159.49 87.9165 1159.86 87.9245C1160.24 87.9325 1160.66 87.9325 1161.13 87.9245C1161.61 87.9245 1162.1 87.9165 1162.58 87.9005C1163.07 87.8925 1163.52 87.8765 1163.94 87.8525C1164.36 87.8365 1164.7 87.8165 1164.96 87.7925L1164.14 88.2485L1164.92 87.6845C1165 87.6205 1165.08 87.6245 1165.15 87.6965C1165.23 87.7765 1165.3 87.8645 1165.37 87.9605C1165.43 88.0645 1165.49 88.1765 1165.54 88.2965C1165.56 88.3445 1165.57 88.3805 1165.56 88.4045C1165.56 88.4365 1165.54 88.4565 1165.49 88.4645C1165.45 88.4805 1165.38 88.4925 1165.27 88.5005C1164.9 88.5085 1164.48 88.5165 1164 88.5245C1163.52 88.5325 1163.03 88.5365 1162.52 88.5365C1162.03 88.5445 1161.55 88.5485 1161.08 88.5485C1160.62 88.5485 1160.21 88.5405 1159.86 88.5245C1159.51 88.5165 1159.25 88.5045 1159.08 88.4885L1159.03 87.8765ZM1158.73 88.7285C1158.63 88.7365 1158.58 88.6925 1158.58 88.5965V86.4365L1158.5 85.9685C1158.49 85.8645 1158.53 85.8165 1158.64 85.8245L1159.42 85.8965C1159.51 85.9125 1159.56 85.9685 1159.57 86.0645V86.1365L1159.36 86.4005L1159.38 88.4165C1159.38 88.4965 1159.36 88.5565 1159.31 88.5965C1159.27 88.6365 1159.17 88.6645 1159.01 88.6805L1158.73 88.7285ZM1159.14 86.5205V85.9205H1164.41V86.5205H1159.14ZM1158.77 84.7685C1158.67 84.7685 1158.61 84.7205 1158.58 84.6245L1158.44 84.2165C1158.41 84.1205 1158.45 84.0725 1158.55 84.0725H1164.41L1164.37 84.6845C1163.74 84.6765 1163.11 84.6765 1162.48 84.6845C1161.84 84.6925 1161.22 84.7045 1160.6 84.7205C1159.99 84.7365 1159.38 84.7525 1158.77 84.7685ZM1164.18 86.6765C1164.08 86.6845 1164.02 86.6365 1164.02 86.5325V84.0965L1164.19 83.9645C1164.27 83.8925 1164.35 83.8805 1164.43 83.9285C1164.51 83.9765 1164.59 84.0325 1164.67 84.0965C1164.76 84.1605 1164.84 84.2245 1164.92 84.2885C1164.96 84.3285 1164.98 84.3645 1164.97 84.3965C1164.97 84.4285 1164.95 84.4645 1164.91 84.5045L1164.83 84.5885L1164.79 86.3765C1164.79 86.4805 1164.74 86.5485 1164.64 86.5805C1164.6 86.5885 1164.55 86.6005 1164.49 86.6165C1164.44 86.6245 1164.38 86.6365 1164.32 86.6525C1164.28 86.6605 1164.23 86.6685 1164.18 86.6765ZM1171.41 89.0045C1171.36 89.0605 1171.32 89.0645 1171.27 89.0165C1170.49 88.4725 1169.88 87.8845 1169.44 87.2525C1169 86.6205 1168.7 85.9645 1168.52 85.2845C1168.34 84.6045 1168.26 83.9205 1168.26 83.2325C1168.26 82.5365 1168.34 81.8485 1168.52 81.1685C1168.7 80.4885 1169 79.8325 1169.44 79.2005C1169.88 78.5685 1170.49 77.9805 1171.27 77.4365C1171.32 77.3965 1171.37 77.4045 1171.41 77.4605L1171.52 77.5925C1171.57 77.6405 1171.56 77.6845 1171.5 77.7245C1170.87 78.2365 1170.39 78.7925 1170.04 79.3925C1169.7 79.9925 1169.46 80.6205 1169.31 81.2765C1169.18 81.9245 1169.11 82.5765 1169.11 83.2325C1169.11 83.8885 1169.18 84.5445 1169.31 85.2005C1169.46 85.8485 1169.7 86.4725 1170.04 87.0725C1170.4 87.6725 1170.88 88.2245 1171.51 88.7285C1171.56 88.7685 1171.56 88.8165 1171.52 88.8725L1171.41 89.0045ZM1176.62 87.4805V83.4845H1177.57V87.4805H1176.62ZM1173.43 79.2965C1173.38 79.2245 1173.33 79.1725 1173.26 79.1405C1173.2 79.1005 1173.12 79.0765 1173.04 79.0685L1172.29 78.9605C1172.23 78.9525 1172.2 78.9165 1172.2 78.8525V78.7085C1172.2 78.6445 1172.23 78.6125 1172.29 78.6125H1176.04C1176.1 78.6125 1176.13 78.6485 1176.13 78.7205V78.8525C1176.13 78.9165 1176.1 78.9525 1176.04 78.9605L1175 79.0685C1174.78 79.0845 1174.66 79.1325 1174.63 79.2125C1174.61 79.2845 1174.66 79.4085 1174.79 79.5845L1177.52 83.4485L1176.9 83.6645L1179.55 79.5965C1179.68 79.4045 1179.72 79.2765 1179.67 79.2125C1179.63 79.1405 1179.5 79.0925 1179.28 79.0685L1178.39 78.9605C1178.32 78.9525 1178.29 78.9165 1178.29 78.8525V78.7085C1178.29 78.6445 1178.32 78.6125 1178.39 78.6125H1181.75C1181.81 78.6125 1181.84 78.6485 1181.84 78.7205V78.8525C1181.84 78.9165 1181.81 78.9525 1181.75 78.9605L1180.86 79.0805C1180.78 79.0885 1180.71 79.1125 1180.66 79.1525C1180.6 79.1925 1180.55 79.2485 1180.5 79.3205L1177.33 84.0965H1176.84L1173.43 79.2965ZM1175.28 87.4805C1175.22 87.4805 1175.18 87.4445 1175.18 87.3725V87.2405C1175.18 87.1685 1175.22 87.1285 1175.29 87.1205L1176.42 86.9645C1176.5 86.9485 1176.55 86.9205 1176.58 86.8805C1176.61 86.8405 1176.62 86.7765 1176.62 86.6885V84.8765H1177.57V86.7125C1177.57 86.8005 1177.59 86.8645 1177.63 86.9045C1177.67 86.9365 1177.73 86.9565 1177.81 86.9645L1178.94 87.1205C1179.01 87.1445 1179.05 87.1885 1179.05 87.2525V87.3845C1179.05 87.4485 1179.01 87.4805 1178.94 87.4805H1175.28ZM1186.39 87.5645C1185.53 87.5645 1184.78 87.3765 1184.12 87.0005C1183.47 86.6245 1182.97 86.0965 1182.6 85.4165C1182.24 84.7285 1182.06 83.9365 1182.06 83.0405C1182.06 82.1445 1182.24 81.3605 1182.61 80.6885C1182.98 80.0085 1183.49 79.4805 1184.13 79.1045C1184.78 78.7205 1185.53 78.5285 1186.39 78.5285C1187.25 78.5285 1188.01 78.7165 1188.67 79.0925C1189.33 79.4685 1189.85 79.9965 1190.21 80.6765C1190.57 81.3565 1190.76 82.1445 1190.76 83.0405C1190.76 83.9525 1190.57 84.7485 1190.21 85.4285C1189.85 86.1085 1189.34 86.6365 1188.68 87.0125C1188.03 87.3805 1187.26 87.5645 1186.39 87.5645ZM1186.34 86.9165C1187.03 86.9165 1187.63 86.7565 1188.13 86.4365C1188.64 86.1165 1189.03 85.6685 1189.31 85.0925C1189.59 84.5165 1189.73 83.8325 1189.73 83.0405C1189.73 82.2485 1189.59 81.5645 1189.31 80.9885C1189.03 80.4125 1188.65 79.9685 1188.14 79.6565C1187.64 79.3365 1187.04 79.1765 1186.34 79.1765C1185.69 79.1765 1185.11 79.3365 1184.61 79.6565C1184.13 79.9685 1183.75 80.4125 1183.49 80.9885C1183.22 81.5645 1183.09 82.2485 1183.09 83.0405C1183.09 83.8325 1183.22 84.5165 1183.49 85.0925C1183.76 85.6685 1184.14 86.1165 1184.63 86.4365C1185.11 86.7565 1185.69 86.9165 1186.34 86.9165ZM1200.22 84.3365C1200.22 85.3605 1199.91 86.1565 1199.29 86.7245C1198.69 87.2925 1197.83 87.5765 1196.71 87.5765C1195.63 87.5765 1194.77 87.3125 1194.15 86.7845C1193.53 86.2565 1193.22 85.5285 1193.22 84.6005V78.6125H1194.17V84.6485C1194.17 85.3525 1194.41 85.9085 1194.88 86.3165C1195.35 86.7245 1195.99 86.9285 1196.81 86.9285C1197.63 86.9285 1198.29 86.7005 1198.77 86.2445C1199.25 85.7885 1199.5 85.1685 1199.5 84.3845V78.6125H1200.22V84.3365ZM1191.78 78.7205C1191.78 78.6485 1191.81 78.6125 1191.88 78.6125H1195.53C1195.6 78.6125 1195.63 78.6445 1195.63 78.7085V78.8405C1195.63 78.9045 1195.6 78.9485 1195.54 78.9725L1194.4 79.1285C1194.32 79.1365 1194.26 79.1605 1194.22 79.2005C1194.19 79.2325 1194.17 79.2925 1194.17 79.3805V81.2165H1193.22V79.4045C1193.22 79.3165 1193.21 79.2525 1193.17 79.2125C1193.14 79.1645 1193.09 79.1365 1193.01 79.1285L1191.88 78.9725C1191.81 78.9645 1191.78 78.9245 1191.78 78.8525V78.7205ZM1198.05 78.7205C1198.05 78.6485 1198.08 78.6125 1198.14 78.6125H1201.56C1201.63 78.6125 1201.67 78.6445 1201.67 78.7085V78.8405C1201.67 78.9045 1201.64 78.9485 1201.57 78.9725L1200.45 79.1285C1200.37 79.1365 1200.31 79.1605 1200.27 79.2005C1200.23 79.2325 1200.22 79.2925 1200.22 79.3805V81.2165H1199.5V79.4045C1199.5 79.3165 1199.48 79.2525 1199.45 79.2125C1199.42 79.1645 1199.36 79.1365 1199.28 79.1285L1198.15 78.9725C1198.08 78.9645 1198.05 78.9245 1198.05 78.8525V78.7205ZM1205.51 87.4805V78.6125H1206.45V87.4805H1205.51ZM1209.53 78.5285C1209.59 78.5205 1209.64 78.5205 1209.67 78.5285C1209.71 78.5365 1209.73 78.5685 1209.73 78.6245C1209.75 78.6725 1209.76 78.7525 1209.77 78.8645L1209.88 80.9165C1209.88 80.9805 1209.85 81.0165 1209.78 81.0245L1209.6 81.0605C1209.54 81.0685 1209.5 81.0365 1209.48 80.9645L1209.05 79.4045C1209.03 79.3245 1208.99 79.2685 1208.93 79.2365C1208.88 79.1965 1208.81 79.1765 1208.71 79.1765H1203.22C1203.14 79.1765 1203.07 79.2005 1203.03 79.2485C1202.99 79.2885 1202.95 79.3485 1202.92 79.4285L1202.49 80.9885C1202.47 81.0525 1202.42 81.0765 1202.34 81.0605L1202.17 81.0245C1202.11 81.0085 1202.08 80.9685 1202.08 80.9045L1202.2 78.7325C1202.21 78.6605 1202.21 78.6125 1202.22 78.5885C1202.24 78.5565 1202.27 78.5365 1202.33 78.5285C1202.39 78.5205 1202.47 78.5245 1202.58 78.5405L1202.92 78.5765C1203.21 78.5845 1203.51 78.5925 1203.82 78.6005C1204.12 78.6085 1204.45 78.6125 1204.8 78.6125C1205.16 78.6125 1205.56 78.6125 1205.99 78.6125C1206.42 78.6125 1206.81 78.6125 1207.17 78.6125C1207.52 78.6125 1207.85 78.6085 1208.15 78.6005C1208.46 78.5925 1208.76 78.5845 1209.04 78.5765L1209.53 78.5285ZM1204.15 87.4805C1204.09 87.4805 1204.06 87.4445 1204.06 87.3725V87.2405C1204.06 87.1685 1204.09 87.1285 1204.17 87.1205L1205.29 86.9645C1205.37 86.9485 1205.43 86.9205 1205.46 86.8805C1205.49 86.8405 1205.51 86.7765 1205.51 86.6885V84.8765H1206.45V86.7125C1206.45 86.8005 1206.47 86.8645 1206.51 86.9045C1206.55 86.9365 1206.61 86.9565 1206.69 86.9645L1207.83 87.1205C1207.89 87.1445 1207.92 87.1885 1207.92 87.2525V87.3845C1207.92 87.4485 1207.89 87.4805 1207.81 87.4805H1204.15ZM1211.88 87.4805V78.6125H1212.83V87.4805H1211.88ZM1211.88 82.5965C1212.46 82.6205 1213.03 82.6405 1213.6 82.6565C1214.17 82.6725 1214.75 82.6805 1215.32 82.6805C1215.9 82.6805 1216.48 82.6725 1217.05 82.6565C1217.63 82.6405 1218.2 82.6205 1218.77 82.5965V83.1605C1218.2 83.1845 1217.63 83.2045 1217.05 83.2205C1216.48 83.2365 1215.9 83.2445 1215.32 83.2445C1214.75 83.2445 1214.17 83.2365 1213.6 83.2205C1213.03 83.2045 1212.46 83.1845 1211.88 83.1605V82.5965ZM1217.82 87.4805V78.6125H1218.77V87.4805H1217.82ZM1216.48 87.4805C1216.41 87.4805 1216.38 87.4445 1216.38 87.3725V87.2405C1216.38 87.1685 1216.42 87.1285 1216.49 87.1205L1217.62 86.9645C1217.7 86.9485 1217.75 86.9205 1217.77 86.8805C1217.8 86.8405 1217.82 86.7765 1217.82 86.6885V84.8765H1218.77V86.7125C1218.77 86.8005 1218.79 86.8645 1218.83 86.9045C1218.87 86.9365 1218.93 86.9565 1219.01 86.9645L1220.14 87.1205C1220.2 87.1445 1220.23 87.1885 1220.23 87.2525V87.3845C1220.23 87.4485 1220.2 87.4805 1220.14 87.4805H1216.48ZM1210.54 87.4805C1210.47 87.4805 1210.44 87.4445 1210.44 87.3725V87.2405C1210.44 87.1685 1210.47 87.1285 1210.54 87.1205L1211.66 86.9645C1211.74 86.9485 1211.8 86.9205 1211.83 86.8805C1211.86 86.8405 1211.88 86.7765 1211.88 86.6885V84.8765H1212.83V86.7125C1212.83 86.8005 1212.84 86.8645 1212.88 86.9045C1212.92 86.9365 1212.98 86.9565 1213.06 86.9645L1214.2 87.1205C1214.26 87.1445 1214.29 87.1885 1214.29 87.2525V87.3845C1214.29 87.4485 1214.26 87.4805 1214.18 87.4805H1210.54ZM1216.38 78.7205C1216.38 78.6485 1216.41 78.6125 1216.48 78.6125H1220.14C1220.2 78.6125 1220.23 78.6445 1220.23 78.7085V78.8405C1220.23 78.9045 1220.2 78.9485 1220.14 78.9725L1219.01 79.1285C1218.93 79.1365 1218.87 79.1605 1218.83 79.2005C1218.79 79.2325 1218.77 79.2925 1218.77 79.3805V81.2165H1217.82V79.4045C1217.82 79.3165 1217.8 79.2525 1217.77 79.2125C1217.75 79.1645 1217.7 79.1365 1217.62 79.1285L1216.49 78.9725C1216.42 78.9645 1216.38 78.9245 1216.38 78.8525V78.7205ZM1210.44 78.7205C1210.44 78.6485 1210.47 78.6125 1210.54 78.6125H1214.18C1214.26 78.6125 1214.29 78.6445 1214.29 78.7085V78.8405C1214.29 78.9045 1214.26 78.9485 1214.2 78.9725L1213.06 79.1285C1212.98 79.1365 1212.92 79.1605 1212.88 79.2005C1212.84 79.2325 1212.83 79.2925 1212.83 79.3805V81.2165H1211.88V79.4045C1211.88 79.3165 1211.86 79.2525 1211.83 79.2125C1211.8 79.1645 1211.74 79.1365 1211.66 79.1285L1210.54 78.9725C1210.47 78.9645 1210.44 78.9245 1210.44 78.8525V78.7205ZM1221.43 89.0045L1221.32 88.8725C1221.28 88.8165 1221.28 88.7685 1221.33 88.7285C1221.96 88.2245 1222.45 87.6725 1222.79 87.0725C1223.14 86.4725 1223.38 85.8485 1223.51 85.2005C1223.65 84.5445 1223.72 83.8885 1223.72 83.2325C1223.72 82.5765 1223.65 81.9245 1223.51 81.2765C1223.38 80.6205 1223.14 79.9925 1222.79 79.3925C1222.45 78.7925 1221.96 78.2365 1221.33 77.7245C1221.27 77.6845 1221.27 77.6405 1221.32 77.5925L1221.43 77.4605C1221.47 77.4045 1221.51 77.3965 1221.57 77.4365C1222.34 77.9805 1222.94 78.5685 1223.38 79.2005C1223.82 79.8325 1224.13 80.4885 1224.31 81.1685C1224.49 81.8485 1224.58 82.5365 1224.58 83.2325C1224.58 83.9205 1224.49 84.6045 1224.31 85.2845C1224.13 85.9645 1223.82 86.6205 1223.38 87.2525C1222.94 87.8845 1222.34 88.4725 1221.57 89.0165C1221.52 89.0645 1221.47 89.0605 1221.43 89.0045Z" fill="black"/>
</g>
</g>
<defs>
<clipPath id="clip0_191_10">
<rect width="1280.75" height="121.98" fill="white"/>
</clipPath>
<clipPath id="clip1_191_10">
<rect width="1214.39" height="16.23" fill="white" transform="translate(33 73)"/>
</clipPath>
</defs>
</svg>
