<svg width="2457" height="181" viewBox="0 0 2457 181" fill="none" xmlns="http://www.w3.org/2000/svg">
<path d="M2456.06 0.5H0.140015V185.24H2456.06V0.5Z" fill="white"/>
<path d="M68.836 104.366C68.58 104.366 68.4094 104.227 68.324 103.95L67.94 102.67C67.9187 102.521 67.9294 102.425 67.972 102.382C68.0147 102.318 68.1107 102.297 68.26 102.318C69.54 102.361 70.9267 102.403 72.42 102.446C73.9134 102.467 75.428 102.478 76.964 102.478C78.5214 102.478 80.0254 102.467 81.476 102.446C82.948 102.403 84.2814 102.35 85.476 102.286L84.26 102.51L85.508 101.934C85.764 101.806 85.9774 101.859 86.1481 102.094C86.2974 102.307 86.468 102.574 86.66 102.894C86.8734 103.214 87.0547 103.513 87.2041 103.79C87.332 104.003 87.364 104.142 87.3001 104.206C87.2361 104.27 86.9907 104.302 86.5641 104.302C85.1347 104.281 83.62 104.27 82.0201 104.27C80.4201 104.249 78.8201 104.249 77.22 104.27C75.6414 104.27 74.1267 104.281 72.676 104.302C71.2467 104.302 69.9667 104.323 68.836 104.366ZM69.412 115.79C69.1347 115.811 68.996 115.694 68.996 115.438V103.502H71.172V115.054C71.172 115.331 71.044 115.513 70.788 115.598C70.5107 115.662 70.2547 115.715 70.02 115.758C69.8067 115.779 69.604 115.79 69.412 115.79ZM70.34 113.326C70.8307 113.347 71.588 113.358 72.612 113.358C73.6574 113.337 74.8307 113.315 76.132 113.294C77.4547 113.273 78.7774 113.241 80.1 113.198C81.4227 113.155 82.6387 113.091 83.7481 113.006C84.8787 112.921 85.7641 112.814 86.4041 112.686L84.612 113.742L86.372 112.398C86.5854 112.249 86.788 112.259 86.98 112.43C87.2147 112.665 87.4174 112.931 87.5881 113.23C87.78 113.507 87.9614 113.795 88.132 114.094C88.2174 114.307 88.228 114.446 88.164 114.51C88.1 114.574 87.8547 114.627 87.428 114.67C86.4681 114.777 85.3481 114.862 84.0681 114.926C82.7881 114.969 81.444 115.011 80.036 115.054C78.6494 115.075 77.3054 115.097 76.004 115.118C74.724 115.118 73.5827 115.107 72.58 115.086C71.5987 115.065 70.884 115.043 70.436 115.022L70.34 113.326ZM65.252 124.302C64.9747 124.302 64.7934 124.185 64.708 123.95L64.356 122.67C64.3134 122.499 64.3027 122.393 64.324 122.35C64.3667 122.286 64.4627 122.265 64.612 122.286C65.6574 122.307 66.8734 122.339 68.26 122.382C69.668 122.403 71.1614 122.425 72.74 122.446C74.34 122.446 75.9614 122.446 77.604 122.446C79.268 122.446 80.8894 122.446 82.4681 122.446C84.0467 122.425 85.5081 122.403 86.8521 122.382C88.2174 122.361 89.4014 122.329 90.4041 122.286L89.1241 122.734L90.4681 121.742C90.596 121.635 90.7027 121.593 90.788 121.614C90.8734 121.635 90.9587 121.71 91.0441 121.838C91.2147 122.115 91.3747 122.425 91.524 122.766C91.6947 123.086 91.8547 123.417 92.004 123.758C92.068 123.907 92.0894 124.025 92.0681 124.11C92.0681 124.174 92.0041 124.217 91.8761 124.238C91.7694 124.259 91.5774 124.27 91.3001 124.27C89.5934 124.249 87.7694 124.238 85.8281 124.238C83.908 124.217 81.956 124.206 79.972 124.206C78.0094 124.206 76.1 124.217 74.244 124.238C72.4094 124.238 70.7134 124.249 69.156 124.27C67.62 124.27 66.3187 124.281 65.252 124.302ZM77.06 123.438L76.996 117.838L76.932 116.462C76.932 116.185 77.0707 116.046 77.348 116.046H79.172C79.3427 116.046 79.4387 116.078 79.46 116.142C79.5027 116.185 79.5027 116.281 79.46 116.43C79.4387 116.515 79.4067 116.601 79.364 116.686C79.3214 116.75 79.2787 116.814 79.236 116.878L79.172 123.438H77.06ZM102.906 114.222C101.605 114.222 100.421 113.977 99.354 113.486C98.2874 112.974 97.4447 112.259 96.826 111.342C96.2074 110.403 95.898 109.283 95.898 107.982C95.898 106.681 96.2074 105.571 96.826 104.654C97.4447 103.715 98.2874 103.001 99.354 102.51C100.421 101.998 101.605 101.742 102.906 101.742C104.165 101.742 105.317 101.998 106.362 102.51C107.429 103.001 108.282 103.715 108.922 104.654C109.583 105.571 109.914 106.681 109.914 107.982C109.914 109.283 109.583 110.403 108.922 111.342C108.282 112.259 107.429 112.974 106.362 113.486C105.317 113.977 104.165 114.222 102.906 114.222ZM102.906 112.558C103.781 112.558 104.581 112.387 105.306 112.046C106.053 111.683 106.639 111.161 107.066 110.478C107.514 109.795 107.738 108.963 107.738 107.982C107.738 107.022 107.514 106.201 107.066 105.518C106.639 104.835 106.053 104.313 105.306 103.95C104.581 103.587 103.781 103.406 102.906 103.406C101.519 103.406 100.357 103.811 99.418 104.622C98.5007 105.411 98.042 106.531 98.042 107.982C98.042 109.454 98.5007 110.585 99.418 111.374C100.357 112.163 101.519 112.558 102.906 112.558ZM116.41 115.982C116.133 116.025 115.994 115.907 115.994 115.63V100.654L115.962 99.8862C115.962 99.6088 116.101 99.4702 116.378 99.4702H118.33C118.607 99.4702 118.703 99.5982 118.618 99.8542C118.554 100.003 118.479 100.153 118.394 100.302C118.309 100.451 118.223 100.601 118.138 100.75V115.246C118.138 115.481 118.085 115.641 117.978 115.726C117.871 115.811 117.605 115.875 117.178 115.918L116.41 115.982ZM117.146 105.966C115.781 105.945 114.618 105.966 113.658 106.03C112.698 106.073 111.866 106.147 111.162 106.254C110.906 106.297 110.735 106.179 110.65 105.902L110.362 104.622C110.298 104.366 110.405 104.249 110.682 104.27C111.279 104.291 111.877 104.323 112.474 104.366C113.093 104.387 113.775 104.387 114.522 104.366C115.29 104.345 116.165 104.323 117.146 104.302V105.966ZM117.146 111.182C115.781 111.161 114.618 111.182 113.658 111.246C112.698 111.289 111.866 111.363 111.162 111.47C110.906 111.513 110.735 111.406 110.65 111.15L110.362 109.87C110.298 109.614 110.405 109.486 110.682 109.486C111.279 109.529 111.877 109.561 112.474 109.582C113.093 109.603 113.775 109.614 114.522 109.614C115.29 109.593 116.165 109.561 117.146 109.518V111.182ZM109.626 127.982C108.09 127.982 106.661 127.769 105.338 127.342C104.037 126.937 102.981 126.318 102.17 125.486C101.381 124.654 100.986 123.619 100.986 122.382C100.986 121.123 101.381 120.078 102.17 119.246C102.981 118.414 104.037 117.795 105.338 117.39C106.661 116.963 108.09 116.75 109.626 116.75C111.162 116.75 112.591 116.963 113.914 117.39C115.237 117.795 116.293 118.414 117.082 119.246C117.871 120.078 118.266 121.123 118.266 122.382C118.266 123.619 117.871 124.654 117.082 125.486C116.293 126.318 115.237 126.937 113.914 127.342C112.591 127.769 111.162 127.982 109.626 127.982ZM109.626 126.222C110.735 126.222 111.77 126.073 112.73 125.774C113.69 125.497 114.469 125.081 115.066 124.526C115.685 123.95 115.994 123.235 115.994 122.382C115.994 121.529 115.685 120.814 115.066 120.238C114.469 119.662 113.69 119.235 112.73 118.958C111.77 118.681 110.735 118.542 109.626 118.542C108.517 118.542 107.471 118.681 106.49 118.958C105.53 119.235 104.741 119.662 104.122 120.238C103.525 120.814 103.226 121.529 103.226 122.382C103.226 123.235 103.525 123.95 104.122 124.526C104.741 125.081 105.53 125.497 106.49 125.774C107.471 126.073 108.517 126.222 109.626 126.222Z" fill="black"/>
<path d="M148.526 117.454C148.291 117.582 148.078 117.55 147.886 117.358L147.182 116.59C147.075 116.483 147.022 116.398 147.022 116.334C147.043 116.27 147.129 116.195 147.278 116.11C148.537 115.427 149.71 114.563 150.798 113.518C151.886 112.451 152.771 111.278 153.454 109.998C154.137 108.697 154.51 107.342 154.574 105.934H156.782C156.718 107.107 156.462 108.249 156.014 109.358C155.587 110.467 155.001 111.523 154.254 112.526C153.529 113.529 152.675 114.457 151.694 115.31C150.713 116.142 149.657 116.857 148.526 117.454ZM161.198 117.006C160.899 117.006 160.686 116.899 160.558 116.686C160.089 116.089 159.502 115.459 158.798 114.798C158.115 114.137 157.369 113.518 156.558 112.942C155.769 112.345 154.958 111.865 154.126 111.502L154.83 110.158C155.662 110.478 156.515 110.894 157.39 111.406C158.286 111.918 159.118 112.462 159.886 113.038C160.654 113.593 161.273 114.126 161.742 114.638C162.211 115.15 162.446 115.566 162.446 115.886C162.446 116.078 162.382 116.259 162.254 116.43C162.126 116.601 161.966 116.739 161.774 116.846C161.603 116.931 161.411 116.985 161.198 117.006ZM148.782 106.926C148.526 106.926 148.355 106.798 148.27 106.542L147.854 105.166C147.811 105.017 147.811 104.921 147.854 104.878C147.897 104.814 147.993 104.793 148.142 104.814C149.081 104.878 150.137 104.931 151.31 104.974C152.505 104.995 153.742 105.006 155.022 105.006C156.302 105.006 157.539 104.995 158.734 104.974C159.95 104.931 161.038 104.878 161.998 104.814L160.59 105.07L161.87 104.366C162.105 104.217 162.297 104.27 162.446 104.526C162.617 104.739 162.777 105.017 162.926 105.358C163.097 105.678 163.257 106.019 163.406 106.382C163.513 106.574 163.534 106.702 163.47 106.766C163.406 106.83 163.161 106.851 162.734 106.83C161.305 106.766 159.747 106.734 158.062 106.734C156.398 106.713 154.755 106.723 153.134 106.766C151.513 106.787 150.062 106.841 148.782 106.926ZM154.542 101.454C154.521 101.177 154.649 101.027 154.926 101.006L156.462 100.878C156.739 100.857 156.878 100.985 156.878 101.262L156.686 105.39H154.67L154.542 101.454ZM168.558 119.63C168.281 119.673 168.142 119.555 168.142 119.278V100.718V99.8862C168.142 99.6088 168.27 99.4702 168.526 99.4702H170.51C170.787 99.4702 170.873 99.5982 170.766 99.8542C170.723 100.003 170.659 100.153 170.574 100.302C170.489 100.451 170.403 100.601 170.318 100.75V118.894C170.318 119.129 170.254 119.289 170.126 119.374C170.019 119.459 169.753 119.523 169.326 119.566L168.558 119.63ZM169.262 111.278C167.918 111.278 166.755 111.31 165.774 111.374C164.814 111.417 163.971 111.491 163.246 111.598C163.097 111.619 162.979 111.609 162.894 111.566C162.83 111.502 162.787 111.395 162.766 111.246L162.446 109.934C162.425 109.785 162.435 109.689 162.478 109.646C162.521 109.582 162.617 109.561 162.766 109.582C163.385 109.625 164.003 109.657 164.622 109.678C165.241 109.699 165.923 109.699 166.67 109.678C167.417 109.657 168.281 109.635 169.262 109.614V111.278ZM152.43 127.982C152.174 128.067 151.95 128.014 151.758 127.822L151.118 127.022C150.926 126.83 150.958 126.691 151.214 126.606C152.195 126.265 153.177 125.795 154.158 125.198C155.139 124.622 156.046 123.982 156.878 123.278C157.731 122.553 158.435 121.817 158.99 121.07C159.566 120.302 159.929 119.577 160.078 118.894V118.382C160.099 118.126 160.238 118.009 160.494 118.03L162.478 118.158C162.649 118.179 162.745 118.222 162.766 118.286C162.809 118.329 162.787 118.414 162.702 118.542L162.382 119.214C162.211 120.003 161.806 120.835 161.166 121.71C160.547 122.585 159.758 123.438 158.798 124.27C157.859 125.081 156.835 125.806 155.726 126.446C154.617 127.107 153.518 127.619 152.43 127.982ZM170.286 127.95C170.03 128.014 169.795 127.95 169.582 127.758C168.793 127.011 167.875 126.307 166.83 125.646C165.785 124.985 164.665 124.377 163.47 123.822C162.297 123.267 161.102 122.798 159.886 122.414L160.91 121.134C161.742 121.39 162.627 121.71 163.566 122.094C164.505 122.457 165.433 122.862 166.35 123.31C167.267 123.737 168.099 124.185 168.846 124.654C169.614 125.102 170.222 125.529 170.67 125.934C171.118 126.361 171.342 126.723 171.342 127.022C171.342 127.214 171.246 127.395 171.054 127.566C170.862 127.737 170.606 127.865 170.286 127.95ZM186.599 115.726C186.322 115.769 186.183 115.651 186.183 115.374V103.022L186.151 102.03C186.108 101.753 186.226 101.614 186.503 101.614H188.359C188.636 101.614 188.732 101.742 188.647 101.998C188.604 102.147 188.551 102.286 188.487 102.414C188.423 102.542 188.359 102.67 188.295 102.798V113.71V114.414V114.99C188.295 115.161 188.274 115.289 188.231 115.374C188.21 115.438 188.135 115.491 188.007 115.534C187.879 115.577 187.676 115.619 187.399 115.662L186.599 115.726ZM187.239 114.99V113.198H198.215V114.99H187.239ZM187.495 108.366V106.638H198.023V108.238L187.495 108.366ZM197.511 115.662C197.234 115.705 197.095 115.587 197.095 115.31V114.35V113.71V103.022L197.031 102.03C197.01 101.753 197.138 101.614 197.415 101.614H199.271C199.548 101.614 199.644 101.742 199.559 101.998C199.495 102.147 199.431 102.286 199.367 102.414C199.324 102.542 199.271 102.67 199.207 102.798V114.926C199.207 115.075 199.186 115.193 199.143 115.278C199.122 115.363 199.047 115.427 198.919 115.47C198.791 115.513 198.588 115.555 198.311 115.598L197.511 115.662ZM206.215 120.878C205.959 120.899 205.831 120.771 205.831 120.494V100.718L205.799 99.8862C205.799 99.6088 205.938 99.4702 206.215 99.4702H208.167C208.444 99.4702 208.54 99.5982 208.455 99.8542C208.391 100.003 208.316 100.153 208.231 100.302C208.146 100.451 208.06 100.601 207.975 100.75V120.142C207.975 120.355 207.911 120.515 207.783 120.622C207.676 120.707 207.41 120.771 206.983 120.814L206.215 120.878ZM206.887 108.558C205.586 108.558 204.466 108.59 203.527 108.654C202.61 108.697 201.81 108.771 201.127 108.878C200.978 108.899 200.86 108.889 200.775 108.846C200.711 108.803 200.658 108.707 200.615 108.558L200.327 107.246C200.306 107.075 200.316 106.969 200.359 106.926C200.402 106.883 200.498 106.862 200.647 106.862C201.244 106.905 201.831 106.937 202.407 106.958C203.004 106.958 203.666 106.958 204.391 106.958C205.116 106.937 205.948 106.905 206.887 106.862V108.558ZM192.519 128.11C192.263 128.153 192.135 128.035 192.135 127.758V120.334L191.975 119.118C191.932 118.862 192.05 118.734 192.327 118.734H194.407C194.663 118.734 194.748 118.851 194.663 119.086C194.599 119.235 194.535 119.385 194.471 119.534C194.407 119.683 194.343 119.833 194.279 119.982V127.31C194.279 127.545 194.215 127.705 194.087 127.79C193.98 127.897 193.714 127.971 193.287 128.014L192.519 128.11ZM193.703 125.678C194.215 125.699 194.919 125.71 195.815 125.71C196.732 125.731 197.746 125.742 198.855 125.742C199.964 125.742 201.106 125.731 202.279 125.71C203.452 125.71 204.551 125.689 205.575 125.646C206.62 125.603 207.506 125.561 208.231 125.518L206.631 126.382L208.391 125.07C208.604 124.921 208.807 124.931 208.999 125.102C209.234 125.358 209.436 125.635 209.607 125.934C209.799 126.233 209.959 126.542 210.087 126.862C210.172 127.075 210.183 127.214 210.119 127.278C210.055 127.342 209.81 127.395 209.383 127.438C208.402 127.459 207.303 127.481 206.087 127.502C204.871 127.523 203.644 127.534 202.407 127.534C201.17 127.534 199.975 127.534 198.823 127.534C197.692 127.534 196.69 127.513 195.815 127.47C194.94 127.449 194.268 127.417 193.799 127.374L193.703 125.678ZM215.037 120.238C214.888 120.451 214.706 120.473 214.493 120.302L213.885 119.854C213.757 119.747 213.682 119.651 213.661 119.566C213.661 119.481 213.704 119.374 213.789 119.246C214.429 118.265 215.005 117.027 215.517 115.534C216.029 114.041 216.445 112.366 216.765 110.51C217.106 108.633 217.309 106.638 217.373 104.526L219.421 104.494C219.378 106.179 219.229 107.79 218.973 109.326C218.738 110.862 218.429 112.302 218.045 113.646C217.661 114.99 217.213 116.217 216.701 117.326C216.189 118.435 215.634 119.406 215.037 120.238ZM221.309 117.966C221.053 117.902 220.893 117.742 220.829 117.486C220.68 116.889 220.456 116.249 220.157 115.566C219.88 114.862 219.549 114.179 219.165 113.518C218.802 112.835 218.418 112.227 218.013 111.694L218.589 110.35C219.101 110.819 219.592 111.353 220.061 111.95C220.53 112.526 220.936 113.123 221.277 113.742C221.618 114.361 221.885 114.937 222.077 115.47C222.29 116.003 222.397 116.462 222.397 116.846C222.376 117.187 222.258 117.465 222.045 117.678C221.853 117.891 221.608 117.987 221.309 117.966ZM221.309 121.07C221.202 121.177 221.106 121.23 221.021 121.23C220.936 121.23 220.829 121.187 220.701 121.102L220.061 120.622C219.912 120.515 219.837 120.43 219.837 120.366C219.837 120.281 219.901 120.195 220.029 120.11C220.968 119.171 221.8 117.934 222.525 116.398C223.272 114.841 223.88 113.059 224.349 111.054C224.818 109.027 225.128 106.851 225.277 104.526L227.325 104.494C227.261 106.179 227.069 107.833 226.749 109.454C226.429 111.075 226.002 112.601 225.469 114.03C224.957 115.459 224.349 116.771 223.645 117.966C222.941 119.161 222.162 120.195 221.309 121.07ZM229.021 120.59C228.765 120.526 228.616 120.355 228.573 120.078C228.445 119.395 228.232 118.627 227.933 117.774C227.656 116.899 227.314 115.95 226.909 114.926C226.504 113.881 226.024 112.803 225.469 111.694L226.237 110.382C226.77 111.043 227.282 111.811 227.773 112.686C228.285 113.561 228.722 114.446 229.085 115.342C229.469 116.217 229.768 117.027 229.981 117.774C230.216 118.521 230.333 119.118 230.333 119.566C230.333 119.907 230.194 120.185 229.917 120.398C229.661 120.611 229.362 120.675 229.021 120.59ZM215.517 105.518C215.368 105.539 215.25 105.529 215.165 105.486C215.101 105.422 215.037 105.315 214.973 105.166L214.653 103.918C214.568 103.641 214.664 103.513 214.941 103.534C215.922 103.619 216.882 103.662 217.821 103.662C218.781 103.662 219.762 103.609 220.765 103.502L219.677 103.758L220.669 103.214C220.882 103.086 221.064 103.15 221.213 103.406L221.885 104.974C221.949 105.123 221.97 105.241 221.949 105.326C221.949 105.39 221.885 105.433 221.757 105.454C221.65 105.475 221.458 105.486 221.181 105.486C220.114 105.443 219.122 105.433 218.205 105.454C217.309 105.454 216.413 105.475 215.517 105.518ZM223.517 105.55C223.24 105.55 223.058 105.422 222.973 105.166L222.589 103.918C222.546 103.747 222.546 103.641 222.589 103.598C222.632 103.534 222.728 103.513 222.877 103.534C223.538 103.598 224.178 103.651 224.797 103.694C225.416 103.715 226.045 103.715 226.685 103.694C227.346 103.651 228.05 103.587 228.797 103.502L227.645 103.758L228.701 103.214C228.936 103.086 229.117 103.15 229.245 103.406L229.981 105.006C230.045 105.134 230.077 105.241 230.077 105.326C230.077 105.39 230.013 105.433 229.885 105.454C229.778 105.475 229.586 105.486 229.309 105.486C228.605 105.465 227.933 105.454 227.293 105.454C226.674 105.433 226.056 105.433 225.437 105.454C224.84 105.475 224.2 105.507 223.517 105.55ZM232.253 112.11V110.222H237.437V112.11H232.253ZM237.021 128.174C236.744 128.195 236.605 128.067 236.605 127.79V100.494V99.8862C236.605 99.7155 236.626 99.6088 236.669 99.5662C236.733 99.5022 236.84 99.4702 236.989 99.4702H238.813C239.069 99.4702 239.165 99.5982 239.101 99.8542C239.037 100.003 238.962 100.153 238.877 100.302C238.792 100.451 238.717 100.601 238.653 100.75V127.47C238.653 127.683 238.589 127.833 238.461 127.918C238.354 128.025 238.098 128.099 237.693 128.142L237.021 128.174ZM231.677 127.374C231.421 127.395 231.293 127.278 231.293 127.022V101.07L231.261 100.494C231.261 100.238 231.4 100.11 231.677 100.11H233.309C233.586 100.11 233.693 100.238 233.629 100.494C233.608 100.643 233.554 100.793 233.469 100.942C233.405 101.091 233.352 101.241 233.309 101.39V126.67C233.309 126.905 233.245 127.065 233.117 127.15C233.01 127.235 232.754 127.299 232.349 127.342L231.677 127.374ZM258.934 113.518C257.782 113.518 256.737 113.283 255.798 112.814C254.859 112.323 254.113 111.641 253.558 110.766C253.003 109.87 252.726 108.803 252.726 107.566C252.726 106.329 253.003 105.262 253.558 104.366C254.113 103.47 254.859 102.787 255.798 102.318C256.737 101.849 257.782 101.614 258.934 101.614C260.043 101.614 261.067 101.849 262.006 102.318C262.945 102.787 263.702 103.47 264.278 104.366C264.875 105.262 265.174 106.329 265.174 107.566C265.174 108.803 264.875 109.87 264.278 110.766C263.702 111.641 262.945 112.323 262.006 112.814C261.067 113.283 260.043 113.518 258.934 113.518ZM258.934 111.822C259.681 111.822 260.363 111.662 260.982 111.342C261.601 111.001 262.102 110.521 262.486 109.902C262.87 109.262 263.062 108.483 263.062 107.566C263.062 106.627 262.87 105.849 262.486 105.23C262.102 104.611 261.601 104.142 260.982 103.822C260.363 103.481 259.681 103.31 258.934 103.31C257.739 103.31 256.758 103.683 255.99 104.43C255.222 105.155 254.838 106.201 254.838 107.566C254.838 108.931 255.222 109.987 255.99 110.734C256.758 111.459 257.739 111.822 258.934 111.822ZM269.238 108.526V106.67H274.87V108.526H269.238ZM274.294 114.542C274.017 114.585 273.878 114.467 273.878 114.19V100.59L273.846 99.8862C273.846 99.7155 273.878 99.6088 273.942 99.5662C274.006 99.5022 274.113 99.4702 274.262 99.4702H276.182C276.459 99.4702 276.555 99.5982 276.47 99.8542C276.406 100.003 276.331 100.153 276.246 100.302C276.161 100.451 276.086 100.601 276.022 100.75V113.838C276.022 114.051 275.958 114.211 275.83 114.318C275.723 114.403 275.457 114.467 275.03 114.51L274.294 114.542ZM268.438 114.606C268.161 114.627 268.022 114.499 268.022 114.222V101.262V100.558C268.022 100.281 268.15 100.142 268.406 100.142H270.006C270.177 100.142 270.283 100.174 270.326 100.238C270.369 100.281 270.379 100.387 270.358 100.558C270.337 100.686 270.305 100.835 270.262 101.006C270.241 101.155 270.209 101.305 270.166 101.454V113.87C270.166 114.083 270.102 114.243 269.974 114.35C269.867 114.435 269.601 114.499 269.174 114.542L268.438 114.606ZM260.054 125.998C260.545 126.041 261.302 126.073 262.326 126.094C263.371 126.115 264.555 126.115 265.878 126.094C267.201 126.094 268.534 126.083 269.878 126.062C271.243 126.041 272.502 126.009 273.654 125.966C274.806 125.923 275.723 125.87 276.406 125.806L274.134 127.022L276.214 125.454C276.427 125.305 276.63 125.315 276.822 125.486C277.035 125.721 277.227 125.966 277.398 126.222C277.59 126.499 277.75 126.787 277.878 127.086C277.942 127.235 277.963 127.342 277.942 127.406C277.942 127.491 277.878 127.545 277.75 127.566C277.643 127.587 277.451 127.609 277.174 127.63C276.171 127.651 275.019 127.673 273.718 127.694C272.417 127.737 271.073 127.758 269.686 127.758C268.299 127.758 266.966 127.758 265.686 127.758C264.406 127.758 263.275 127.737 262.294 127.694C261.334 127.673 260.63 127.641 260.182 127.598L260.054 125.998ZM259.254 128.238C258.977 128.302 258.838 128.185 258.838 127.886V122.126L258.646 120.878C258.603 120.601 258.721 120.473 258.998 120.494L261.046 120.718C261.323 120.761 261.473 120.899 261.494 121.134L261.526 121.326L260.95 121.966V127.406C260.95 127.619 260.886 127.779 260.758 127.886C260.651 127.993 260.395 128.078 259.99 128.142L259.254 128.238ZM260.31 122.414V120.782H274.806V122.414H260.31ZM259.382 117.678C259.105 117.678 258.923 117.539 258.838 117.262L258.486 116.206C258.422 115.95 258.518 115.822 258.774 115.822H274.87L274.742 117.454C272.011 117.433 269.419 117.443 266.966 117.486C264.534 117.529 262.006 117.593 259.382 117.678ZM274.23 122.766C273.953 122.787 273.814 122.659 273.814 122.382L273.846 115.886H273.878L274.326 115.534C274.539 115.342 274.753 115.31 274.966 115.438C275.137 115.566 275.339 115.715 275.574 115.886C275.809 116.057 276.022 116.227 276.214 116.398C276.385 116.59 276.374 116.782 276.182 116.974L275.958 117.198L275.862 121.966C275.862 122.243 275.723 122.425 275.446 122.51C275.339 122.531 275.211 122.563 275.062 122.606C274.913 122.627 274.763 122.659 274.614 122.702C274.486 122.723 274.358 122.745 274.23 122.766ZM283.724 114.574C283.447 114.617 283.308 114.499 283.308 114.222V102.894L283.244 101.934C283.223 101.657 283.351 101.518 283.628 101.518H285.484C285.761 101.518 285.857 101.646 285.772 101.902C285.729 102.051 285.676 102.19 285.612 102.318C285.548 102.425 285.484 102.542 285.42 102.67V112.59V113.326V113.902C285.42 114.051 285.399 114.169 285.356 114.254C285.335 114.318 285.26 114.371 285.132 114.414C285.004 114.457 284.801 114.489 284.524 114.51L283.724 114.574ZM284.364 113.838V112.078H295.276V113.838H284.364ZM284.62 107.79V106.062H295.052V107.662L284.62 107.79ZM294.54 114.51C294.284 114.553 294.156 114.435 294.156 114.158V113.262V112.59V102.894L294.092 101.934C294.071 101.657 294.188 101.518 294.444 101.518H296.332C296.588 101.518 296.673 101.646 296.588 101.902C296.524 102.051 296.46 102.19 296.396 102.318C296.353 102.425 296.311 102.542 296.268 102.67V113.838C296.268 113.987 296.247 114.105 296.204 114.19C296.161 114.254 296.076 114.307 295.948 114.35C295.82 114.393 295.617 114.425 295.34 114.446L294.54 114.51ZM303.212 116.014C302.935 116.057 302.796 115.939 302.796 115.662V100.654L302.764 99.8862C302.764 99.6088 302.903 99.4702 303.18 99.4702H305.132C305.409 99.4702 305.505 99.5982 305.42 99.8542C305.356 100.003 305.281 100.153 305.196 100.302C305.111 100.451 305.025 100.601 304.94 100.75V115.31C304.94 115.523 304.876 115.683 304.748 115.79C304.641 115.875 304.385 115.939 303.98 115.982L303.212 116.014ZM303.948 107.95C302.604 107.929 301.452 107.95 300.492 108.014C299.553 108.078 298.732 108.163 298.028 108.27C297.879 108.291 297.772 108.281 297.708 108.238C297.644 108.174 297.58 108.067 297.516 107.918L297.228 106.574C297.207 106.425 297.217 106.329 297.26 106.286C297.303 106.222 297.399 106.201 297.548 106.222C298.145 106.286 298.743 106.329 299.34 106.35C299.959 106.35 300.631 106.35 301.356 106.35C302.103 106.329 302.967 106.307 303.948 106.286V107.95ZM289.74 128.238C289.463 128.259 289.324 128.142 289.324 127.886L289.228 119.822L288.908 117.774C288.844 117.497 288.961 117.379 289.26 117.422L291.18 117.614C291.436 117.657 291.553 117.817 291.532 118.094L291.372 118.862V127.47C291.372 127.683 291.308 127.843 291.18 127.95C291.052 128.057 290.785 128.131 290.38 128.174L289.74 128.238ZM290.188 119.662V118.03L303.5 117.934V119.662H290.188ZM290.572 127.502V125.774H303.564V127.502H290.572ZM303.084 117.518C303.297 117.347 303.511 117.337 303.724 117.486C303.895 117.614 304.065 117.742 304.236 117.87C304.428 117.998 304.599 118.137 304.748 118.286C304.919 118.414 305.079 118.563 305.228 118.734C305.42 118.947 305.399 119.118 305.164 119.246C305.079 119.289 304.993 119.331 304.908 119.374C304.844 119.395 304.769 119.427 304.684 119.47L304.492 127.15C304.471 127.363 304.396 127.523 304.268 127.63C304.161 127.758 303.905 127.854 303.5 127.918L302.956 127.982C302.679 128.046 302.54 127.939 302.54 127.662V118.734L302.412 118.094L303.084 117.518Z" fill="black"/>
<path d="M2069 116.008C2068.74 116.115 2068.52 116.072 2068.33 115.88L2067.62 115.08C2067.52 114.973 2067.46 114.888 2067.46 114.824C2067.49 114.76 2067.57 114.696 2067.72 114.632C2068.96 114.013 2070.12 113.224 2071.21 112.264C2072.3 111.283 2073.19 110.195 2073.9 109C2074.6 107.805 2074.98 106.557 2075.05 105.256H2077.26C2077.19 106.344 2076.94 107.411 2076.49 108.456C2076.06 109.501 2075.47 110.493 2074.73 111.432C2073.98 112.371 2073.12 113.235 2072.14 114.024C2071.18 114.792 2070.13 115.453 2069 116.008ZM2081.74 115.592C2081.46 115.592 2081.23 115.485 2081.06 115.272C2080.59 114.739 2080.01 114.173 2079.3 113.576C2078.62 112.957 2077.86 112.381 2077.03 111.848C2076.22 111.293 2075.4 110.845 2074.57 110.504L2075.27 109.192C2076.1 109.469 2076.96 109.843 2077.83 110.312C2078.73 110.76 2079.56 111.251 2080.33 111.784C2081.12 112.296 2081.75 112.797 2082.22 113.288C2082.71 113.757 2082.95 114.152 2082.95 114.472C2082.95 114.664 2082.89 114.845 2082.76 115.016C2082.65 115.165 2082.51 115.293 2082.34 115.4C2082.17 115.485 2081.97 115.549 2081.74 115.592ZM2069.22 106.216C2068.97 106.237 2068.8 106.109 2068.71 105.832L2068.26 104.52C2068.24 104.349 2068.24 104.243 2068.26 104.2C2068.31 104.136 2068.4 104.115 2068.55 104.136C2069.51 104.2 2070.59 104.253 2071.78 104.296C2072.98 104.317 2074.21 104.339 2075.46 104.36C2076.74 104.36 2077.99 104.349 2079.21 104.328C2080.42 104.285 2081.51 104.232 2082.47 104.168L2081.03 104.392L2082.34 103.688C2082.58 103.539 2082.77 103.581 2082.92 103.816C2083.07 104.051 2083.23 104.339 2083.4 104.68C2083.57 105 2083.73 105.331 2083.88 105.672C2083.99 105.885 2084.01 106.024 2083.94 106.088C2083.88 106.131 2083.63 106.141 2083.21 106.12C2081.76 106.056 2080.2 106.024 2078.54 106.024C2076.87 106.003 2075.23 106.013 2073.61 106.056C2072.01 106.099 2070.55 106.152 2069.22 106.216ZM2074.98 100.968C2074.98 100.691 2075.11 100.541 2075.37 100.52L2076.94 100.424C2077.21 100.403 2077.34 100.52 2077.32 100.776L2077.16 104.712H2075.14L2074.98 100.968ZM2088.42 116.872C2088.15 116.915 2088.01 116.797 2088.01 116.52V100.744L2087.98 99.976C2087.98 99.6987 2088.11 99.56 2088.39 99.56H2090.34C2090.62 99.56 2090.72 99.688 2090.63 99.944C2090.57 100.093 2090.49 100.243 2090.41 100.392C2090.32 100.541 2090.24 100.691 2090.15 100.84V116.136C2090.15 116.371 2090.09 116.531 2089.96 116.616C2089.85 116.701 2089.6 116.765 2089.19 116.808L2088.42 116.872ZM2089.1 110.12C2087.84 110.099 2086.75 110.12 2085.83 110.184C2084.91 110.227 2084.11 110.301 2083.43 110.408C2083.18 110.451 2083.01 110.333 2082.92 110.056L2082.63 108.744C2082.61 108.595 2082.61 108.499 2082.63 108.456C2082.67 108.392 2082.77 108.371 2082.92 108.392C2083.52 108.435 2084.11 108.467 2084.71 108.488C2085.31 108.509 2085.96 108.52 2086.66 108.52C2087.37 108.499 2088.18 108.467 2089.1 108.424V110.12ZM2081.58 128.168C2080 128.168 2078.55 127.976 2077.22 127.592C2075.92 127.208 2074.88 126.621 2074.09 125.832C2073.32 125.064 2072.94 124.093 2072.94 122.92C2072.94 121.747 2073.32 120.776 2074.09 120.008C2074.88 119.219 2075.92 118.632 2077.22 118.248C2078.55 117.843 2080 117.64 2081.58 117.64C2083.15 117.64 2084.59 117.843 2085.9 118.248C2087.22 118.632 2088.26 119.219 2089.03 120.008C2089.82 120.776 2090.22 121.747 2090.22 122.92C2090.22 124.093 2089.82 125.064 2089.03 125.832C2088.26 126.621 2087.22 127.208 2085.9 127.592C2084.59 127.976 2083.15 128.168 2081.58 128.168ZM2081.58 126.408C2082.73 126.408 2083.78 126.28 2084.74 126.024C2085.7 125.789 2086.48 125.416 2087.08 124.904C2087.68 124.392 2087.98 123.731 2087.98 122.92C2087.98 122.131 2087.68 121.48 2087.08 120.968C2086.48 120.435 2085.7 120.051 2084.74 119.816C2083.78 119.56 2082.73 119.432 2081.58 119.432C2080.42 119.432 2079.36 119.56 2078.38 119.816C2077.39 120.051 2076.61 120.435 2076.01 120.968C2075.41 121.48 2075.11 122.131 2075.11 122.92C2075.11 123.731 2075.41 124.392 2076.01 124.904C2076.61 125.416 2077.39 125.789 2078.38 126.024C2079.36 126.28 2080.42 126.408 2081.58 126.408ZM2100.93 113.32C2100.67 113.405 2100.45 113.352 2100.25 113.16L2099.52 112.328C2099.41 112.221 2099.37 112.136 2099.39 112.072C2099.41 112.008 2099.49 111.965 2099.61 111.944C2100.7 111.688 2101.76 111.336 2102.78 110.888C2103.83 110.419 2104.79 109.875 2105.66 109.256C2106.54 108.637 2107.25 107.976 2107.81 107.272C2108.36 106.547 2108.67 105.8 2108.73 105.032H2111.01C2110.9 105.971 2110.54 106.877 2109.92 107.752C2109.3 108.605 2108.5 109.405 2107.52 110.152C2106.56 110.877 2105.5 111.517 2104.35 112.072C2103.2 112.605 2102.06 113.021 2100.93 113.32ZM2118.33 113.256C2118.08 113.32 2117.83 113.288 2117.6 113.16C2116.98 112.712 2116.28 112.285 2115.49 111.88C2114.7 111.453 2113.86 111.048 2112.99 110.664C2112.12 110.28 2111.26 109.949 2110.43 109.672C2109.6 109.373 2108.82 109.16 2108.09 109.032L2109.02 107.848C2109.73 107.955 2110.53 108.136 2111.42 108.392C2112.32 108.627 2113.22 108.915 2114.14 109.256C2115.08 109.576 2115.94 109.928 2116.73 110.312C2117.52 110.675 2118.15 111.027 2118.62 111.368C2119.11 111.709 2119.36 112.019 2119.36 112.296C2119.36 112.509 2119.26 112.701 2119.07 112.872C2118.88 113.043 2118.63 113.171 2118.33 113.256ZM2101.12 105.768C2100.86 105.768 2100.69 105.64 2100.61 105.384L2100.22 104.008C2100.18 103.859 2100.18 103.763 2100.22 103.72C2100.26 103.656 2100.36 103.635 2100.51 103.656C2101.32 103.699 2102.3 103.741 2103.45 103.784C2104.61 103.805 2105.84 103.827 2107.17 103.848C2108.49 103.848 2109.81 103.848 2111.13 103.848C2112.48 103.827 2113.74 103.805 2114.91 103.784C2116.08 103.741 2117.1 103.688 2117.95 103.624L2116.57 103.944L2117.79 103.336C2118.02 103.229 2118.22 103.304 2118.37 103.56L2119.29 105.256C2119.42 105.448 2119.45 105.576 2119.39 105.64C2119.33 105.704 2119.08 105.725 2118.65 105.704C2117.35 105.683 2115.89 105.672 2114.27 105.672C2112.67 105.651 2111.04 105.651 2109.37 105.672C2107.73 105.672 2106.18 105.683 2104.73 105.704C2103.3 105.704 2102.1 105.725 2101.12 105.768ZM2108.86 100.52C2108.84 100.243 2108.97 100.093 2109.25 100.072L2110.72 99.912C2110.97 99.8907 2111.1 100.019 2111.1 100.296L2110.85 104.264H2108.96L2108.86 100.52ZM2096.73 117.096C2096.46 117.096 2096.28 116.979 2096.19 116.744L2095.81 115.496C2095.76 115.368 2095.76 115.283 2095.81 115.24C2095.85 115.176 2095.94 115.144 2096.09 115.144C2097.14 115.165 2098.37 115.187 2099.77 115.208C2101.18 115.229 2102.69 115.251 2104.29 115.272C2105.89 115.293 2107.51 115.304 2109.15 115.304C2110.79 115.304 2112.4 115.304 2113.98 115.304C2115.56 115.283 2117.03 115.261 2118.4 115.24C2119.76 115.219 2120.95 115.197 2121.95 115.176L2120.61 115.592L2121.98 114.632C2122.09 114.525 2122.18 114.483 2122.27 114.504C2122.36 114.525 2122.44 114.589 2122.53 114.696C2122.7 114.952 2122.86 115.24 2123.01 115.56C2123.18 115.859 2123.34 116.189 2123.49 116.552C2123.53 116.68 2123.55 116.787 2123.55 116.872C2123.55 116.936 2123.49 116.979 2123.36 117C2123.25 117.021 2123.06 117.032 2122.78 117.032C2121.1 117.011 2119.28 117 2117.34 117C2115.42 116.979 2113.48 116.968 2111.52 116.968C2109.56 116.968 2107.65 116.979 2105.79 117C2103.93 117.021 2102.23 117.043 2100.67 117.064C2099.11 117.064 2097.8 117.075 2096.73 117.096ZM2109.09 122.344C2108.81 122.387 2108.67 122.269 2108.67 121.992V116.296H2110.88V121.608C2110.88 121.843 2110.81 122.003 2110.69 122.088C2110.58 122.173 2110.31 122.237 2109.89 122.28L2109.09 122.344ZM2101.47 128.2C2101.21 128.243 2101.09 128.125 2101.09 127.848V122.472L2100.93 121.32C2100.88 121.064 2101 120.936 2101.28 120.936H2103.33C2103.6 120.936 2103.69 121.053 2103.58 121.288C2103.52 121.437 2103.45 121.587 2103.39 121.736C2103.35 121.864 2103.28 122.003 2103.2 122.152V127.432C2103.2 127.645 2103.13 127.805 2103.01 127.912C2102.9 128.019 2102.64 128.093 2102.24 128.136L2101.47 128.2ZM2102.69 125.768C2103.2 125.789 2103.93 125.811 2104.89 125.832C2105.88 125.853 2106.96 125.864 2108.16 125.864C2109.35 125.864 2110.57 125.853 2111.81 125.832C2113.06 125.811 2114.24 125.779 2115.33 125.736C2116.44 125.715 2117.35 125.683 2118.08 125.64L2116.48 126.504L2118.17 125.352C2118.41 125.203 2118.63 125.213 2118.85 125.384C2119.08 125.619 2119.28 125.864 2119.45 126.12C2119.65 126.397 2119.81 126.675 2119.93 126.952C2120 127.08 2120.02 127.176 2120 127.24C2120 127.325 2119.93 127.379 2119.81 127.4C2119.7 127.443 2119.51 127.475 2119.23 127.496C2118.21 127.539 2117.06 127.571 2115.81 127.592C2114.55 127.613 2113.25 127.624 2111.9 127.624C2110.58 127.624 2109.31 127.624 2108.09 127.624C2106.88 127.624 2105.8 127.603 2104.86 127.56C2103.94 127.539 2103.25 127.507 2102.78 127.464L2102.69 125.768ZM2135.51 115.304C2134.1 115.304 2132.82 115.037 2131.67 114.504C2130.54 113.971 2129.63 113.203 2128.95 112.2C2128.29 111.176 2127.96 109.971 2127.96 108.584C2127.96 107.197 2128.29 106.003 2128.95 105C2129.63 103.997 2130.54 103.229 2131.67 102.696C2132.82 102.141 2134.1 101.864 2135.51 101.864C2136.87 101.864 2138.12 102.141 2139.25 102.696C2140.4 103.229 2141.32 103.997 2142 105C2142.69 106.003 2143.03 107.197 2143.03 108.584C2143.03 109.971 2142.69 111.176 2142 112.2C2141.32 113.203 2140.4 113.971 2139.25 114.504C2138.12 115.037 2136.87 115.304 2135.51 115.304ZM2135.51 113.672C2136.49 113.672 2137.37 113.469 2138.16 113.064C2138.97 112.659 2139.63 112.083 2140.12 111.336C2140.61 110.568 2140.85 109.651 2140.85 108.584C2140.85 107.517 2140.61 106.611 2140.12 105.864C2139.63 105.117 2138.97 104.541 2138.16 104.136C2137.37 103.709 2136.49 103.496 2135.51 103.496C2134.48 103.496 2133.57 103.709 2132.76 104.136C2131.95 104.541 2131.31 105.117 2130.84 105.864C2130.37 106.611 2130.13 107.517 2130.13 108.584C2130.13 109.651 2130.37 110.568 2130.84 111.336C2131.31 112.083 2131.95 112.659 2132.76 113.064C2133.57 113.469 2134.48 113.672 2135.51 113.672ZM2148.12 128.264C2147.84 128.285 2147.7 128.157 2147.7 127.88V100.904V99.976C2147.7 99.6987 2147.83 99.56 2148.08 99.56H2150.04C2150.31 99.56 2150.42 99.688 2150.36 99.944C2150.27 100.093 2150.19 100.243 2150.1 100.392C2150.04 100.541 2149.96 100.691 2149.88 100.84V127.528C2149.88 127.741 2149.81 127.891 2149.68 127.976C2149.56 128.083 2149.29 128.157 2148.88 128.2L2148.12 128.264ZM2127.6 121.032C2127.33 121.032 2127.15 120.904 2127.06 120.648L2126.68 119.496C2126.63 119.347 2126.63 119.251 2126.68 119.208C2126.72 119.144 2126.81 119.112 2126.96 119.112C2128.48 119.091 2130.13 119.059 2131.92 119.016C2133.72 118.952 2135.56 118.867 2137.46 118.76C2139.36 118.653 2141.24 118.536 2143.09 118.408C2144.97 118.259 2146.73 118.088 2148.37 117.896C2148.54 117.875 2148.65 117.896 2148.69 117.96C2148.76 118.003 2148.8 118.099 2148.82 118.248L2148.85 118.984C2148.87 119.24 2148.76 119.389 2148.5 119.432C2146.86 119.667 2145.12 119.88 2143.28 120.072C2141.45 120.243 2139.6 120.392 2137.75 120.52C2135.89 120.648 2134.1 120.755 2132.37 120.84C2130.64 120.925 2129.05 120.989 2127.6 121.032ZM2171.09 113.352C2170.94 113.331 2170.83 113.277 2170.77 113.192C2170.72 113.107 2170.71 112.989 2170.73 112.84C2170.8 111.901 2170.79 110.867 2170.7 109.736C2170.62 108.584 2170.45 107.56 2170.19 106.664C2170.1 106.408 2170.18 106.237 2170.41 106.152L2171.18 105.896C2171.44 105.811 2171.63 105.885 2171.76 106.12C2172.06 106.76 2172.3 107.453 2172.49 108.2C2172.71 108.947 2172.87 109.672 2172.97 110.376C2173.08 111.08 2173.13 111.709 2173.13 112.264C2173.11 112.52 2173.05 112.733 2172.94 112.904C2172.83 113.075 2172.7 113.203 2172.53 113.288C2172.35 113.373 2172.14 113.427 2171.89 113.448C2171.65 113.448 2171.38 113.416 2171.09 113.352ZM2180.2 114.184C2180.5 113.437 2180.73 112.616 2180.88 111.72C2181.05 110.824 2181.15 109.928 2181.2 109.032C2181.26 108.115 2181.27 107.272 2181.23 106.504C2181.21 106.248 2181.33 106.067 2181.58 105.96C2181.92 105.832 2182.24 105.768 2182.54 105.768C2182.84 105.768 2183.09 105.832 2183.28 105.96C2183.49 106.067 2183.6 106.248 2183.6 106.504C2183.64 107.016 2183.63 107.592 2183.57 108.232C2183.5 108.872 2183.39 109.544 2183.25 110.248C2183.1 110.931 2182.89 111.613 2182.64 112.296C2182.4 112.957 2182.11 113.576 2181.77 114.152L2180.2 114.184ZM2167.44 104.936C2167.16 104.936 2166.98 104.797 2166.89 104.52L2166.51 103.048C2166.47 102.899 2166.47 102.803 2166.51 102.76C2166.55 102.696 2166.65 102.675 2166.8 102.696C2167.61 102.739 2168.65 102.781 2169.93 102.824C2171.23 102.845 2172.64 102.867 2174.16 102.888C2175.67 102.888 2177.19 102.888 2178.7 102.888C2180.22 102.867 2181.61 102.845 2182.89 102.824C2184.19 102.781 2185.25 102.728 2186.06 102.664L2184.69 102.952L2185.9 102.28C2186.03 102.195 2186.13 102.173 2186.19 102.216C2186.27 102.237 2186.36 102.312 2186.45 102.44L2187.41 104.36C2187.53 104.573 2187.57 104.712 2187.5 104.776C2187.44 104.84 2187.19 104.861 2186.77 104.84C2185.81 104.819 2184.65 104.808 2183.31 104.808C2181.97 104.808 2180.54 104.819 2179.02 104.84C2177.53 104.84 2176.05 104.851 2174.57 104.872C2173.12 104.872 2171.77 104.883 2170.51 104.904C2169.27 104.904 2168.25 104.915 2167.44 104.936ZM2167.44 115.432C2167.16 115.453 2166.98 115.325 2166.89 115.048L2166.51 113.64C2166.47 113.469 2166.47 113.363 2166.51 113.32C2166.55 113.256 2166.65 113.235 2166.8 113.256C2167.61 113.299 2168.65 113.341 2169.93 113.384C2171.23 113.405 2172.63 113.416 2174.13 113.416C2175.64 113.416 2177.15 113.416 2178.67 113.416C2180.21 113.395 2181.63 113.373 2182.96 113.352C2184.3 113.309 2185.41 113.267 2186.29 113.224L2184.88 113.48L2186.19 112.776C2186.32 112.691 2186.41 112.659 2186.48 112.68C2186.56 112.701 2186.64 112.787 2186.7 112.936L2187.66 114.888C2187.77 115.101 2187.79 115.24 2187.73 115.304C2187.66 115.368 2187.42 115.389 2186.99 115.368C2185.52 115.325 2183.9 115.293 2182.12 115.272C2180.38 115.251 2178.59 115.24 2176.78 115.24C2174.99 115.24 2173.27 115.261 2171.63 115.304C2170.01 115.325 2168.61 115.368 2167.44 115.432ZM2164.08 124.392C2163.8 124.392 2163.62 124.275 2163.53 124.04L2163.18 122.76C2163.14 122.589 2163.13 122.483 2163.15 122.44C2163.19 122.376 2163.29 122.355 2163.44 122.376C2164.48 122.397 2165.7 122.429 2167.09 122.472C2168.49 122.493 2169.99 122.515 2171.57 122.536C2173.17 122.536 2174.79 122.536 2176.43 122.536C2178.09 122.536 2179.71 122.536 2181.29 122.536C2182.87 122.515 2184.33 122.493 2185.68 122.472C2187.04 122.451 2188.23 122.419 2189.23 122.376L2187.95 122.824L2189.29 121.832C2189.42 121.725 2189.53 121.683 2189.61 121.704C2189.7 121.725 2189.78 121.8 2189.87 121.928C2190.04 122.205 2190.2 122.515 2190.35 122.856C2190.52 123.176 2190.68 123.507 2190.83 123.848C2190.89 123.997 2190.91 124.115 2190.89 124.2C2190.89 124.264 2190.83 124.307 2190.7 124.328C2190.59 124.349 2190.4 124.36 2190.13 124.36C2188.42 124.339 2186.59 124.328 2184.65 124.328C2182.73 124.307 2180.78 124.296 2178.8 124.296C2176.83 124.296 2174.93 124.307 2173.07 124.328C2171.23 124.328 2169.54 124.339 2167.98 124.36C2166.45 124.36 2165.14 124.371 2164.08 124.392ZM2175.89 123.528L2175.82 117.928L2175.76 116.552C2175.76 116.275 2175.9 116.136 2176.17 116.136H2178C2178.17 116.136 2178.26 116.168 2178.28 116.232C2178.33 116.275 2178.33 116.371 2178.28 116.52C2178.26 116.605 2178.23 116.691 2178.19 116.776C2178.15 116.84 2178.1 116.904 2178.06 116.968L2178 123.528H2175.89ZM2206.44 113.032C2206.18 113.096 2206.05 112.979 2206.05 112.68V111.848V111.24V102.088H2206.02L2206.82 101.544C2207.01 101.395 2207.22 101.395 2207.46 101.544C2207.67 101.693 2207.89 101.864 2208.1 102.056C2208.31 102.227 2208.5 102.397 2208.68 102.568C2208.87 102.76 2208.86 102.941 2208.64 103.112C2208.56 103.155 2208.47 103.208 2208.39 103.272C2208.3 103.336 2208.23 103.4 2208.16 103.464V112.168C2208.16 112.403 2208.1 112.573 2207.97 112.68C2207.84 112.787 2207.58 112.872 2207.17 112.936L2206.44 113.032ZM2196.9 112.616L2196.74 110.824H2206.92V112.616H2196.9ZM2195.84 113.384C2195.57 113.427 2195.43 113.309 2195.43 113.032L2195.27 103.56L2195.04 101.768C2194.98 101.491 2195.09 101.384 2195.36 101.448L2197.19 101.672C2197.44 101.736 2197.56 101.896 2197.54 102.152L2197.38 103.112L2197.48 111.144V111.592V112.616C2197.48 112.829 2197.41 112.989 2197.28 113.096C2197.18 113.203 2196.91 113.277 2196.48 113.32L2195.84 113.384ZM2196.39 103.816V102.12L2207.4 102.024V103.816H2196.39ZM2213.67 114.344C2213.41 114.365 2213.28 114.237 2213.28 113.96V100.712L2213.25 99.976C2213.25 99.8053 2213.28 99.6987 2213.35 99.656C2213.41 99.592 2213.52 99.56 2213.67 99.56H2215.62C2215.9 99.56 2215.99 99.688 2215.91 99.944C2215.84 100.093 2215.77 100.243 2215.68 100.392C2215.6 100.541 2215.51 100.691 2215.43 100.84V113.608C2215.43 113.821 2215.36 113.981 2215.24 114.088C2215.13 114.173 2214.87 114.237 2214.47 114.28L2213.67 114.344ZM2214.76 109.768V108.072H2218.92L2219.75 107.56C2219.96 107.432 2220.14 107.485 2220.29 107.72C2220.4 107.976 2220.49 108.264 2220.58 108.584C2220.69 108.904 2220.77 109.213 2220.84 109.512C2220.9 109.789 2220.79 109.917 2220.52 109.896L2214.76 109.768ZM2199.94 126.056C2200.43 126.12 2201.17 126.163 2202.15 126.184C2203.15 126.205 2204.28 126.205 2205.54 126.184C2206.82 126.184 2208.11 126.163 2209.41 126.12C2210.71 126.099 2211.92 126.056 2213.03 125.992C2214.16 125.949 2215.06 125.896 2215.75 125.832L2213.57 127.048L2215.65 125.544C2215.86 125.373 2216.07 125.384 2216.26 125.576C2216.47 125.789 2216.66 126.024 2216.84 126.28C2217.01 126.557 2217.16 126.856 2217.28 127.176C2217.35 127.304 2217.37 127.4 2217.35 127.464C2217.35 127.549 2217.28 127.603 2217.16 127.624C2217.05 127.667 2216.86 127.699 2216.58 127.72C2215.6 127.741 2214.47 127.763 2213.19 127.784C2211.91 127.805 2210.6 127.816 2209.25 127.816C2207.93 127.837 2206.65 127.848 2205.41 127.848C2204.17 127.848 2203.09 127.827 2202.15 127.784C2201.21 127.763 2200.52 127.731 2200.07 127.688L2199.94 126.056ZM2199.14 128.328C2198.86 128.349 2198.72 128.232 2198.72 127.976V122.216L2198.53 120.968C2198.49 120.691 2198.61 120.563 2198.88 120.584L2200.96 120.776C2201.22 120.819 2201.36 120.968 2201.38 121.224V121.416L2200.8 122.12L2200.87 127.496C2200.87 127.709 2200.8 127.869 2200.68 127.976C2200.57 128.083 2200.3 128.157 2199.88 128.2L2199.14 128.328ZM2200.23 122.44V120.84H2214.28V122.44H2200.23ZM2199.24 117.768C2198.98 117.768 2198.81 117.64 2198.72 117.384L2198.37 116.296C2198.29 116.04 2198.38 115.912 2198.66 115.912H2214.28L2214.18 117.544C2212.49 117.523 2210.81 117.523 2209.12 117.544C2207.44 117.565 2205.77 117.597 2204.13 117.64C2202.49 117.683 2200.86 117.725 2199.24 117.768ZM2213.67 122.856C2213.39 122.877 2213.25 122.749 2213.25 122.472V115.976L2213.7 115.624C2213.91 115.432 2214.13 115.4 2214.34 115.528C2214.55 115.656 2214.77 115.805 2214.98 115.976C2215.21 116.147 2215.44 116.317 2215.65 116.488C2215.76 116.595 2215.8 116.691 2215.78 116.776C2215.78 116.861 2215.73 116.957 2215.62 117.064L2215.4 117.288L2215.3 122.056C2215.3 122.333 2215.16 122.515 2214.88 122.6C2214.78 122.621 2214.65 122.653 2214.5 122.696C2214.35 122.717 2214.2 122.749 2214.05 122.792C2213.92 122.813 2213.8 122.835 2213.67 122.856ZM2232.95 129.064C2232.83 129.213 2232.7 129.224 2232.57 129.096C2230.5 127.645 2228.88 126.077 2227.71 124.392C2226.53 122.707 2225.71 120.957 2225.24 119.144C2224.77 117.331 2224.54 115.507 2224.54 113.672C2224.54 111.816 2224.77 109.981 2225.24 108.168C2225.71 106.355 2226.53 104.605 2227.71 102.92C2228.88 101.235 2230.5 99.6667 2232.57 98.216C2232.72 98.1093 2232.85 98.1307 2232.95 98.28L2233.24 98.632C2233.37 98.76 2233.35 98.8773 2233.18 98.984C2231.51 100.349 2230.22 101.832 2229.31 103.432C2228.39 105.032 2227.74 106.707 2227.35 108.456C2226.99 110.184 2226.81 111.923 2226.81 113.672C2226.81 115.421 2226.99 117.171 2227.35 118.92C2227.74 120.648 2228.39 122.312 2229.31 123.912C2230.24 125.512 2231.55 126.984 2233.21 128.328C2233.34 128.435 2233.35 128.563 2233.24 128.712L2232.95 129.064ZM2246.85 125V114.344H2249.38V125H2246.85ZM2238.34 103.176C2238.21 102.984 2238.06 102.845 2237.89 102.76C2237.72 102.653 2237.51 102.589 2237.28 102.568L2235.3 102.28C2235.13 102.259 2235.04 102.163 2235.04 101.992V101.608C2235.04 101.437 2235.13 101.352 2235.3 101.352H2245.28C2245.45 101.352 2245.54 101.448 2245.54 101.64V101.992C2245.54 102.163 2245.45 102.259 2245.28 102.28L2242.53 102.568C2241.93 102.611 2241.6 102.739 2241.54 102.952C2241.47 103.144 2241.61 103.475 2241.95 103.944L2249.25 114.248L2247.58 114.824L2254.66 103.976C2255 103.464 2255.1 103.123 2254.98 102.952C2254.87 102.76 2254.52 102.632 2253.92 102.568L2251.55 102.28C2251.38 102.259 2251.3 102.163 2251.3 101.992V101.608C2251.3 101.437 2251.38 101.352 2251.55 101.352H2260.51C2260.68 101.352 2260.77 101.448 2260.77 101.64V101.992C2260.77 102.163 2260.68 102.259 2260.51 102.28L2258.14 102.6C2257.93 102.621 2257.75 102.685 2257.6 102.792C2257.45 102.899 2257.31 103.048 2257.18 103.24L2248.74 115.976H2247.42L2238.34 103.176ZM2243.26 125C2243.09 125 2243.01 124.904 2243.01 124.712V124.36C2243.01 124.168 2243.1 124.061 2243.3 124.04L2246.3 123.624C2246.52 123.581 2246.66 123.507 2246.72 123.4C2246.81 123.293 2246.85 123.123 2246.85 122.888V118.056H2249.38V122.952C2249.38 123.187 2249.43 123.357 2249.54 123.464C2249.64 123.549 2249.8 123.603 2250.02 123.624L2253.02 124.04C2253.22 124.104 2253.31 124.221 2253.31 124.392V124.744C2253.31 124.915 2253.22 125 2253.02 125H2243.26ZM2272.89 125.224C2270.61 125.224 2268.59 124.723 2266.84 123.72C2265.12 122.717 2263.76 121.309 2262.78 119.496C2261.82 117.661 2261.34 115.549 2261.34 113.16C2261.34 110.771 2261.83 108.68 2262.81 106.888C2263.79 105.075 2265.15 103.667 2266.88 102.664C2268.6 101.64 2270.61 101.128 2272.89 101.128C2275.2 101.128 2277.22 101.629 2278.97 102.632C2280.74 103.635 2282.11 105.043 2283.07 106.856C2284.05 108.669 2284.54 110.771 2284.54 113.16C2284.54 115.592 2284.05 117.715 2283.07 119.528C2282.11 121.341 2280.75 122.749 2279 123.752C2277.26 124.733 2275.22 125.224 2272.89 125.224ZM2272.76 123.496C2274.6 123.496 2276.19 123.069 2277.53 122.216C2278.9 121.363 2279.94 120.168 2280.67 118.632C2281.42 117.096 2281.79 115.272 2281.79 113.16C2281.79 111.048 2281.42 109.224 2280.67 107.688C2279.94 106.152 2278.91 104.968 2277.56 104.136C2276.22 103.283 2274.62 102.856 2272.76 102.856C2271.02 102.856 2269.48 103.283 2268.16 104.136C2266.86 104.968 2265.85 106.152 2265.15 107.688C2264.44 109.224 2264.09 111.048 2264.09 113.16C2264.09 115.272 2264.44 117.096 2265.15 118.632C2265.87 120.168 2266.89 121.363 2268.19 122.216C2269.49 123.069 2271.02 123.496 2272.76 123.496ZM2309.77 116.616C2309.77 119.347 2308.94 121.469 2307.3 122.984C2305.68 124.499 2303.39 125.256 2300.42 125.256C2297.52 125.256 2295.24 124.552 2293.57 123.144C2291.93 121.736 2291.11 119.795 2291.11 117.32V101.352H2293.64V117.448C2293.64 119.325 2294.27 120.808 2295.53 121.896C2296.78 122.984 2298.5 123.528 2300.68 123.528C2302.87 123.528 2304.61 122.92 2305.89 121.704C2307.19 120.488 2307.85 118.835 2307.85 116.744V101.352H2309.77V116.616ZM2287.27 101.64C2287.27 101.448 2287.35 101.352 2287.53 101.352H2297.25C2297.45 101.352 2297.54 101.437 2297.54 101.608V101.96C2297.54 102.131 2297.46 102.248 2297.29 102.312L2294.25 102.728C2294.03 102.749 2293.87 102.813 2293.77 102.92C2293.68 103.005 2293.64 103.165 2293.64 103.4V108.296H2291.11V103.464C2291.11 103.229 2291.07 103.059 2290.98 102.952C2290.9 102.824 2290.75 102.749 2290.53 102.728L2287.53 102.312C2287.35 102.291 2287.27 102.184 2287.27 101.992V101.64ZM2303.97 101.64C2303.97 101.448 2304.06 101.352 2304.23 101.352H2313.35C2313.54 101.352 2313.64 101.437 2313.64 101.608V101.96C2313.64 102.131 2313.55 102.248 2313.38 102.312L2310.37 102.728C2310.16 102.749 2310 102.813 2309.89 102.92C2309.81 103.005 2309.77 103.165 2309.77 103.4V108.296H2307.85V103.464C2307.85 103.229 2307.8 103.059 2307.72 102.952C2307.63 102.824 2307.48 102.749 2307.27 102.728L2304.26 102.312C2304.07 102.291 2303.97 102.184 2303.97 101.992V101.64ZM2323.88 125V101.352H2326.37V125H2323.88ZM2334.6 101.128C2334.77 101.107 2334.9 101.107 2334.98 101.128C2335.07 101.149 2335.12 101.235 2335.14 101.384C2335.18 101.512 2335.22 101.725 2335.24 102.024L2335.53 107.496C2335.53 107.667 2335.44 107.763 2335.27 107.784L2334.79 107.88C2334.62 107.901 2334.51 107.816 2334.47 107.624L2333.32 103.464C2333.25 103.251 2333.15 103.101 2333 103.016C2332.87 102.909 2332.68 102.856 2332.42 102.856H2317.77C2317.55 102.856 2317.38 102.92 2317.25 103.048C2317.15 103.155 2317.05 103.315 2316.97 103.528L2315.81 107.688C2315.77 107.859 2315.64 107.923 2315.43 107.88L2314.98 107.784C2314.81 107.741 2314.73 107.635 2314.73 107.464L2315.05 101.672C2315.07 101.48 2315.09 101.352 2315.11 101.288C2315.15 101.203 2315.25 101.149 2315.4 101.128C2315.55 101.107 2315.77 101.117 2316.07 101.16L2316.97 101.256C2317.76 101.277 2318.56 101.299 2319.37 101.32C2320.18 101.341 2321.05 101.352 2321.99 101.352C2322.95 101.352 2324.01 101.352 2325.16 101.352C2326.31 101.352 2327.36 101.352 2328.29 101.352C2329.23 101.352 2330.11 101.341 2330.92 101.32C2331.75 101.299 2332.54 101.277 2333.29 101.256L2334.6 101.128ZM2320.26 125C2320.09 125 2320.01 124.904 2320.01 124.712V124.36C2320.01 124.168 2320.1 124.061 2320.29 124.04L2323.3 123.624C2323.52 123.581 2323.66 123.507 2323.75 123.4C2323.84 123.293 2323.88 123.123 2323.88 122.888V118.056H2326.37V122.952C2326.37 123.187 2326.43 123.357 2326.53 123.464C2326.64 123.549 2326.8 123.603 2327.01 123.624L2330.05 124.04C2330.22 124.104 2330.31 124.221 2330.31 124.392V124.744C2330.31 124.915 2330.21 125 2330.02 125H2320.26ZM2340.87 125V101.352H2343.4V125H2340.87ZM2340.87 111.976C2342.4 112.04 2343.93 112.093 2345.44 112.136C2346.98 112.179 2348.52 112.2 2350.05 112.2C2351.59 112.2 2353.12 112.179 2354.66 112.136C2356.2 112.093 2357.72 112.04 2359.24 111.976V113.48C2357.72 113.544 2356.2 113.597 2354.66 113.64C2353.12 113.683 2351.59 113.704 2350.05 113.704C2348.52 113.704 2346.98 113.683 2345.44 113.64C2343.93 113.597 2342.4 113.544 2340.87 113.48V111.976ZM2356.71 125V101.352H2359.24V125H2356.71ZM2353.12 125C2352.95 125 2352.87 124.904 2352.87 124.712V124.36C2352.87 124.168 2352.96 124.061 2353.16 124.04L2356.16 123.624C2356.38 123.581 2356.52 123.507 2356.58 123.4C2356.67 123.293 2356.71 123.123 2356.71 122.888V118.056H2359.24V122.952C2359.24 123.187 2359.29 123.357 2359.4 123.464C2359.5 123.549 2359.66 123.603 2359.88 123.624L2362.88 124.04C2363.05 124.104 2363.14 124.221 2363.14 124.392V124.744C2363.14 124.915 2363.05 125 2362.88 125H2353.12ZM2337.28 125C2337.11 125 2337.03 124.904 2337.03 124.712V124.36C2337.03 124.168 2337.11 124.061 2337.28 124.04L2340.29 123.624C2340.51 123.581 2340.65 123.507 2340.74 123.4C2340.83 123.293 2340.87 123.123 2340.87 122.888V118.056H2343.4V122.952C2343.4 123.187 2343.44 123.357 2343.52 123.464C2343.63 123.549 2343.79 123.603 2344 123.624L2347.04 124.04C2347.21 124.104 2347.3 124.221 2347.3 124.392V124.744C2347.3 124.915 2347.2 125 2347.01 125H2337.28ZM2352.87 101.64C2352.87 101.448 2352.95 101.352 2353.12 101.352H2362.88C2363.05 101.352 2363.14 101.437 2363.14 101.608V101.96C2363.14 102.131 2363.05 102.248 2362.88 102.312L2359.88 102.728C2359.66 102.749 2359.5 102.813 2359.4 102.92C2359.29 103.005 2359.24 103.165 2359.24 103.4V108.296H2356.71V103.464C2356.71 103.229 2356.67 103.059 2356.58 102.952C2356.52 102.824 2356.38 102.749 2356.16 102.728L2353.16 102.312C2352.96 102.291 2352.87 102.184 2352.87 101.992V101.64ZM2337.03 101.64C2337.03 101.448 2337.11 101.352 2337.28 101.352H2347.01C2347.2 101.352 2347.3 101.437 2347.3 101.608V101.96C2347.3 102.131 2347.21 102.248 2347.04 102.312L2344 102.728C2343.79 102.749 2343.63 102.813 2343.52 102.92C2343.44 103.005 2343.4 103.165 2343.4 103.4V108.296H2340.87V103.464C2340.87 103.229 2340.83 103.059 2340.74 102.952C2340.65 102.824 2340.51 102.749 2340.29 102.728L2337.28 102.312C2337.11 102.291 2337.03 102.184 2337.03 101.992V101.64ZM2366.32 129.064L2366.03 128.712C2365.93 128.563 2365.94 128.435 2366.07 128.328C2367.75 126.984 2369.05 125.512 2369.97 123.912C2370.89 122.312 2371.53 120.648 2371.89 118.92C2372.25 117.171 2372.43 115.421 2372.43 113.672C2372.43 111.923 2372.25 110.184 2371.89 108.456C2371.53 106.707 2370.89 105.032 2369.97 103.432C2369.05 101.832 2367.75 100.349 2366.07 98.984C2365.92 98.8773 2365.91 98.76 2366.03 98.632L2366.32 98.28C2366.43 98.1307 2366.56 98.1093 2366.71 98.216C2368.75 99.6667 2370.36 101.235 2371.54 102.92C2372.71 104.605 2373.53 106.355 2374 108.168C2374.49 109.981 2374.74 111.816 2374.74 113.672C2374.74 115.507 2374.49 117.331 2374 119.144C2373.53 120.957 2372.71 122.707 2371.54 124.392C2370.36 126.077 2368.75 127.645 2366.71 129.096C2366.58 129.224 2366.45 129.213 2366.32 129.064Z" fill="black"/>
</svg>
